<?xml version="1.0" encoding="iso-8859-1"?>
<!-- Uploaded to: SVG Repo, www.svgrepo.com, Generator: SVG Repo Mixer Tools -->
<!DOCTYPE svg PUBLIC "-//W3C//DTD SVG 1.1//EN" "http://www.w3.org/Graphics/SVG/1.1/DTD/svg11.dtd">
<svg fill="#ffffff" height="800px" width="800px" version="1.1" id="Capa_1" xmlns="http://www.w3.org/2000/svg" xmlns:xlink="http://www.w3.org/1999/xlink"
	 viewBox="0 0 461.436 461.436" xml:space="preserve">
<g>
	<path d="M460.403,307.005c-3.187-11.001-13.36-19.001-29.068-23.086c14.28-34.816,13.186-63.461-3.423-74.489
		c-3.456-2.295-8.516-4.418-15.419-4.448c7.685-27.252,4.443-48.199-9.367-57.368c-10.055-6.675-23.911-5.722-39.428,2.353
		c2.033-24.381-4.198-41.98-17.781-48.564c-13.305-6.45-30.675-0.724-48.265,15.349c-3.839-19.897-12.831-32.72-25.766-36.066
		c-13.198-3.417-27.831,3.982-41.168,20.472c-13.334-16.489-27.965-23.888-41.168-20.472c-12.936,3.347-21.928,16.169-25.766,36.066
		c-17.59-16.072-34.959-21.797-48.265-15.348c-13.583,6.583-19.815,24.182-17.782,48.563c-15.517-8.076-29.373-9.03-39.426-2.353
		c-13.812,9.169-17.052,30.119-9.368,57.368c-6.902,0.03-11.963,2.153-15.418,4.448c-16.61,11.028-17.705,39.673-3.424,74.49
		c-15.708,4.085-25.881,12.084-29.069,23.085c-4.84,16.704,7.477,35.787,33.792,52.357c23.07,14.527,50.197,22.206,78.448,22.206
		h234.89c28.252,0,55.379-7.679,78.449-22.206C452.927,342.791,465.243,323.708,460.403,307.005z M417.554,344.976
		c-20.354,12.817-44.349,19.591-69.391,19.591h-234.89c-25.041,0-49.036-6.774-69.39-19.591
		c-18.288-11.516-28.946-24.874-26.522-33.24c1.828-6.308,11.528-11.19,25.948-13.059c2.703-0.351,5.075-1.977,6.376-4.372
		c1.302-2.396,1.375-5.27,0.198-7.729c-15.953-33.317-15.49-57.317-6.954-62.984c1.767-1.173,3.912-1.621,6.158-1.621
		c3.268,0,6.748,0.948,9.585,1.99c3.135,1.149,6.654,0.36,8.995-2.023s3.068-5.916,1.86-9.03
		c-11.091-28.595-8.715-46.55-1.813-51.132c6.702-4.453,20.889,0.444,36.135,12.48c2.826,2.231,6.751,2.44,9.8,0.519
		c3.047-1.921,4.552-5.553,3.757-9.066c-5.561-24.583-3.287-44.736,5.527-49.008c8.551-4.142,25.319,6.017,40.795,24.694
		c2.256,2.722,5.961,3.76,9.299,2.618c3.343-1.145,5.629-4.239,5.742-7.77c0.678-21.235,6.722-36.948,15.037-39.1
		c7.707-1.99,19.389,7.093,29.774,23.146c1.566,2.421,4.253,3.883,7.137,3.883s5.57-1.462,7.137-3.883
		c10.385-16.052,22.069-25.139,29.773-23.146c8.315,2.151,14.359,17.864,15.038,39.1c0.113,3.531,2.399,6.625,5.742,7.77
		c3.341,1.143,7.045,0.103,9.299-2.619c15.478-18.679,32.258-28.835,40.794-24.693c8.815,4.272,11.088,24.426,5.526,49.008
		c-0.794,3.513,0.711,7.145,3.758,9.066c3.047,1.92,6.974,1.713,9.8-0.519c15.245-12.035,29.429-16.934,36.137-12.479
		c6.9,4.582,9.277,22.537-1.813,51.132c-1.208,3.114-0.479,6.647,1.86,9.03c2.34,2.383,5.858,3.173,8.995,2.023
		c4.787-1.758,11.406-3.25,15.743-0.369c8.535,5.667,8.998,29.667-6.954,62.985c-1.177,2.458-1.104,5.333,0.198,7.728
		c1.302,2.396,3.673,4.021,6.376,4.372c14.42,1.869,24.119,6.751,25.947,13.059C446.499,320.102,435.841,333.46,417.554,344.976z"/>
	<path d="M149.419,284.856c-14.611,0-26.499,11.887-26.499,26.499s11.888,26.499,26.499,26.499s26.499-11.887,26.499-26.499
		S164.03,284.856,149.419,284.856z M149.419,320.854c-5.237,0-9.499-4.261-9.499-9.499s4.262-9.499,9.499-9.499
		s9.499,4.261,9.499,9.499S154.656,320.854,149.419,320.854z"/>
	<path d="M305.414,284.856c-14.611,0-26.499,11.887-26.499,26.499s11.888,26.499,26.499,26.499c14.612,0,26.5-11.887,26.5-26.499
		S320.026,284.856,305.414,284.856z M305.414,320.854c-5.237,0-9.499-4.261-9.499-9.499s4.262-9.499,9.499-9.499
		c5.238,0,9.5,4.261,9.5,9.499S310.652,320.854,305.414,320.854z"/>
	<path d="M230.719,154.787c-14.611,0-26.499,11.887-26.499,26.499s11.888,26.499,26.499,26.499s26.499-11.887,26.499-26.499
		S245.33,154.787,230.719,154.787z M230.719,190.785c-5.237,0-9.499-4.261-9.499-9.499s4.262-9.499,9.499-9.499
		s9.499,4.261,9.499,9.499S235.956,190.785,230.719,190.785z"/>
	<path d="M227.417,250.26c-14.611,0-26.499,11.887-26.499,26.499s11.888,26.499,26.499,26.499s26.499-11.887,26.499-26.499
		S242.028,250.26,227.417,250.26z M227.417,286.258c-5.237,0-9.499-4.261-9.499-9.499s4.262-9.499,9.499-9.499
		s9.499,4.261,9.499,9.499S232.654,286.258,227.417,286.258z"/>
	<path d="M157.504,231.7c0-14.612-11.888-26.499-26.499-26.499s-26.499,11.887-26.499,26.499s11.888,26.5,26.499,26.5
		S157.504,246.311,157.504,231.7z M121.506,231.7c0-5.238,4.262-9.499,9.499-9.499c5.237,0,9.499,4.261,9.499,9.499
		c0,5.238-4.262,9.5-9.499,9.5C125.767,241.199,121.506,236.938,121.506,231.7z"/>
	<path d="M330.432,205.201c-14.612,0-26.5,11.887-26.5,26.499s11.888,26.5,26.5,26.5c14.611,0,26.499-11.888,26.499-26.5
		S345.044,205.201,330.432,205.201z M330.432,241.199c-5.238,0-9.5-4.261-9.5-9.5c0-5.238,4.262-9.499,9.5-9.499
		c5.237,0,9.499,4.261,9.499,9.499C339.931,236.938,335.67,241.199,330.432,241.199z"/>
</g>
</svg>
