<?xml version="1.0" encoding="UTF-8" standalone="no"?>
<!-- Created with Inkscape (http://www.inkscape.org/) -->

<svg
   xmlns:dc="http://purl.org/dc/elements/1.1/"
   xmlns:cc="http://creativecommons.org/ns#"
   xmlns:rdf="http://www.w3.org/1999/02/22-rdf-syntax-ns#"
   xmlns:svg="http://www.w3.org/2000/svg"
   xmlns="http://www.w3.org/2000/svg"
   xmlns:sodipodi="http://sodipodi.sourceforge.net/DTD/sodipodi-0.dtd"
   xmlns:inkscape="http://www.inkscape.org/namespaces/inkscape"
   id="svg4136"
   version="1.1"
   inkscape:version="0.91 r13725"
   width="677.8125"
   height="720.9375"
   viewBox="0 0 677.8125 720.9375"
   sodipodi:docname="IcelandMossSilhouette.svg">
  <metadata
     id="metadata4142">
    <rdf:RDF>
      <cc:Work
         rdf:about="">
        <dc:format>image/svg+xml</dc:format>
        <dc:type
           rdf:resource="http://purl.org/dc/dcmitype/StillImage" />
        <dc:title></dc:title>
      </cc:Work>
    </rdf:RDF>
  </metadata>
  <defs
     id="defs4140" />
  <sodipodi:namedview
     pagecolor="#ffffff"
     bordercolor="#666666"
     borderopacity="1"
     objecttolerance="10"
     gridtolerance="10"
     guidetolerance="10"
     inkscape:pageopacity="0"
     inkscape:pageshadow="2"
     inkscape:window-width="1600"
     inkscape:window-height="837"
     id="namedview4138"
     showgrid="false"
     inkscape:zoom="0.92934547"
     inkscape:cx="338.90625"
     inkscape:cy="360.46875"
     inkscape:window-x="-8"
     inkscape:window-y="-8"
     inkscape:window-maximized="1"
     inkscape:current-layer="svg4136" />
  <path
     style="fill:#ffffff"
     d="m 411.79687,720.27588 c -2.72129,-0.52415 -2.7117,-0.59517 1.25531,-9.29947 11.02877,-24.19899 12.30125,-29.97275 11.03615,-50.07534 -0.552,-8.77137 -0.59419,-20.78793 -0.10685,-30.43232 1.42639,-28.22786 1.10742,-44.72629 -1.08749,-56.25 -4.61183,-24.21296 -10.28801,-45.4068 -15.81825,-59.0625 C 401.49481,501.3754 397.5,487.26308 397.5,481.32837 c 0,-2.3777 -6.38011,-18.0594 -10.21122,-25.09819 -1.44407,-2.65316 -3.42871,-6.30049 -4.41031,-8.10518 -0.98159,-1.80469 -2.05634,-3.40695 -2.38832,-3.56058 -0.33198,-0.15363 -0.39889,-1.06218 -0.14867,-2.01899 0.56595,-2.1642 -2.60774,-3.38348 -5.19823,-1.9971 -2.268,1.2138 -3.31132,5.16056 -2.00796,7.59591 0.70491,1.31713 0.69917,1.85576 -0.0198,1.85576 -1.24401,0 -0.58243,4.71285 1.84248,13.125 0.96613,3.35156 2.67606,9.46875 3.79982,13.59375 1.12377,4.125 3.03355,10.875 4.24396,15 5.33493,18.18112 10.8289,48.25078 13.10359,71.71875 0.6922,7.14142 1.97922,15.67977 3.74481,24.84375 0.6954,3.60937 1.51174,11.41406 1.81407,17.34375 0.30235,5.92969 1.0278,17.96596 1.61213,26.74728 1.36532,20.51808 -1.40222,51.51467 -4.93186,55.23709 -0.46448,0.48985 -0.8445,1.61485 -0.8445,2.50001 0,0.88515 -0.44558,1.75789 -0.99018,1.93943 -0.75171,0.25057 -2.18277,9.95521 -2.73928,18.57619 -0.0706,1.09421 -7.52394,0.84318 -7.5967,-0.25586 -0.0419,-0.63271 -0.24005,-2.41602 -0.44034,-3.96289 -0.20029,-1.54688 -0.58125,-8.71653 -0.84655,-15.93257 -0.27984,-7.6115 -0.8822,-13.25334 -1.43467,-13.43751 -0.52375,-0.17458 -0.96061,-1.23149 -0.97078,-2.34867 -0.0394,-4.32471 -12.6318,-35.82171 -19.1608,-47.92626 -2.23756,-4.14837 -6.01884,-11.30745 -8.40286,-15.90907 -2.38402,-4.60162 -4.69434,-8.82037 -5.13407,-9.375 -0.43972,-0.55463 -3.4338,-7.12561 -6.6535,-14.60217 -10.77611,-25.02349 -19.95199,-44.11807 -24.5609,-51.11009 -1.70534,-2.58711 -3.66174,-5.78656 -4.34756,-7.10989 -4.22751,-8.15718 -10.51945,-13.00025 -21.72182,-16.71981 -5.92969,-1.96886 -14.06566,-4.89877 -18.07993,-6.51091 -12.48428,-5.01372 -23.17007,-5.41444 -23.17007,-0.86888 0,0.41639 -0.85699,0.75708 -1.90442,0.75708 -1.04744,0 -2.14726,0.63281 -2.44405,1.40625 -0.29681,0.77344 -1.30811,1.40625 -2.24737,1.40625 -0.93925,0 -2.34054,0.63281 -3.11398,1.40625 -2.89921,2.8992 -5.7969,0.99897 -4.28884,-2.8125 1.22737,-3.10204 0.96361,-7.89744 -0.56249,-10.22655 -1.37975,-2.10578 -4.44256,-3.31948 -15.69738,-6.22039 -4.45291,-1.14773 -6.80574,-2.77181 -4.01555,-2.77181 0.80387,0 1.46158,-0.3848 1.46158,-0.85509 0,-0.47031 1.6875,-1.1402 3.75,-1.48866 2.30548,-0.38951 3.75,-1.14351 3.75,-1.95741 0,-1.72387 0.37423,-1.67897 4.50176,0.54013 11.35379,6.10417 27.29388,8.51211 28.15508,4.25315 0.20593,-1.01839 0.93554,-2.28401 1.62135,-2.8125 3.24487,-2.50045 4.90231,-24.25805 2.06412,-27.09624 -0.81807,-0.81806 -1.63054,-1.81134 -1.80548,-2.20726 -0.85009,-1.9239 -6.86733,-4.00499 -14.22278,-4.91901 -11.21405,-1.39351 -19.0995,-5.64461 -10.4703,-5.64461 1.28906,0 2.34375,-0.3848 2.34375,-0.85509 0,-0.47031 1.71561,-1.14495 3.81246,-1.49921 11.00865,-1.8599 5.22232,-8.7173 -18.39513,-21.80013 -8.06441,-4.46726 -12.58878,-6.08572 -46.53939,-16.64805 -6.03119,-1.87635 -13.99771,-4.86456 -17.70338,-6.64046 -8.77969,-4.20755 -10.23706,-3.78405 -10.23706,2.97487 0,2.98183 0.41443,5.09307 0.99976,5.09307 0.94941,0 0.4743,11.96344 -0.51437,12.95211 -1.00632,1.00633 -3.11555,-0.85685 -3.69845,-3.26702 -1.06457,-4.40186 -2.80309,-7.81009 -3.98387,-7.81009 -0.61282,0 -1.36755,-0.7982 -1.67719,-1.77378 -0.30964,-0.97558 -1.36486,-1.98348 -2.34494,-2.23977 -1.15897,-0.30308 -2.00399,-1.64951 -2.41704,-3.85122 -0.34929,-1.86188 -1.00433,-3.38523 -1.45565,-3.38523 -0.45133,0 -1.42297,-1.4417 -2.15921,-3.20377 -2.06692,-4.94684 -15.56154,-6.17871 -15.56154,-1.42055 0,0.99649 -0.36435,1.81182 -0.80966,1.81182 -0.44532,0 -0.80966,1.68042 -0.80966,3.73428 0,4.09245 -1.19502,6.11485 -4.05516,6.8628 -2.25847,0.5906 -4.63802,-3.37942 -4.63802,-7.73802 0,-3.36682 -2.02036,-3.8382 -4.04732,-0.94431 -0.73763,1.05311 -2.836124,2.15735 -4.663321,2.45386 l -3.322171,0.53912 0.157031,-7.31524 0.157031,-7.31524 7.96875,-1.7107 c 4.38281,-0.94088 8.8125,-2.07574 9.84375,-2.52189 1.03125,-0.44616 3.03516,-1.27656 4.45313,-1.84533 5.04044,-2.02181 1.87978,-4.82433 -5.44085,-4.82433 -1.18779,0 -2.72578,-0.56618 -3.41779,-1.25818 -3.44506,-3.44507 -12.586471,-4.39885 -14.377967,-1.50015 -0.300262,0.48583 -2.103063,0.89259 -4.006226,0.90392 -6.005542,0.0357 -18.865244,8.49243 -18.918942,12.44132 -0.02033,1.49511 -7.5721,10.92746 -10.594446,13.23271 -8.638012,6.58853 -19.490539,7.37026 -11.319692,0.81538 3.173744,-2.54607 3.413767,-3.10109 3.485443,-8.05968 0.04234,-2.92893 0.406964,-5.32532 0.810283,-5.32532 0.403319,0 0.733307,-0.63281 0.733307,-1.40625 0,-0.77344 0.604384,-1.40625 1.343074,-1.40625 0.738691,0 1.61087,-0.84375 1.938176,-1.875 0.327306,-1.03125 0.988548,-1.875 1.469426,-1.875 6.881426,0 -0.653444,-9.06868 -8.001395,-9.63018 -3.592583,-0.27452 -6.686333,-0.96223 -6.875,-1.52823 -0.188667,-0.566 -1.02348,-1.02909 -1.85514,-1.02909 -2.398625,0 -8.644141,-4.77409 -8.644141,-6.60759 0,-1.97819 3.398976,-2.60832 14.401202,-2.66981 4.553136,-0.0254 7.922597,-0.49983 8.815897,-1.24121 0.79527,-0.66002 2.282984,-1.05822 3.306031,-0.88491 1.023047,0.17332 2.150896,-0.15541 2.50633,-0.73052 0.355434,-0.5751 3.895635,-1.41005 7.867113,-1.85543 9.875488,-1.1075 12.977065,-3.83774 10.528399,-9.26791 -2.757843,-6.11581 -7.026087,-6.83079 -17.234709,-2.88705 -1.184418,0.45757 -3.999278,0.83193 -6.255245,0.83193 -3.266022,0 -4.928424,0.65843 -8.159013,3.23157 -6.746063,5.3732 -14.009696,9.35947 -14.780847,8.11172 -1.197283,-1.93724 -7.131645,-2.36471 -8.597933,-0.61933 -5.831915,6.94194 -18.8665951,13.49908 -17.8755866,8.99238 1.7362705,-7.89587 1.4033294,-10.04697 -1.6495412,-10.65755 -7.424932,-1.48498 -6.9476208,-5.52881 1.103544,-9.34934 1.8945915,-0.89904 3.6984678,-2.04521 4.0086138,-2.54704 0.310146,-0.50182 1.382754,-0.91241 2.383573,-0.91241 1.00082,0 1.819672,-0.32072 1.819672,-0.71271 0,-0.39198 1.083237,-1.88092 2.407194,-3.30875 4.337488,-4.67779 2.954939,-5.86659 -6.420822,-5.52102 -5.374613,0.19808 -8.173872,-0.0427 -8.173872,-0.70313 0,-0.55241 -0.6328125,-1.00439 -1.40625,-1.00439 -1.84994191,0 -1.84994191,-4.08968 0,-5.625 0.7734375,-0.6419 1.40625,-1.71308 1.40625,-2.38042 0,-0.66733 0.5273438,-1.4043 1.171875,-1.63771 0.9361939,-0.33904 0.9345962,-0.82612 -0.00794,-2.42189 C 3.2747893,312.05958 3.1797977,311.25 3.7420557,311.25 c 0.5199944,0 0.9454443,-1.00956 0.9454443,-2.24345 0,-1.2339 0.6328125,-2.48628 1.40625,-2.78308 C 6.8671875,305.92668 7.5,304.66512 7.5,303.42002 c 0,-1.47539 0.65302,-2.4346 1.875,-2.75416 1.03125,-0.26968 1.875,-1.16263 1.875,-1.98434 0,-0.86902 0.784378,-1.49402 1.875,-1.49402 1.25,0 1.875,-0.625 1.875,-1.875 0,-1.03125 0.421875,-1.875 0.9375,-1.875 5.245626,0 -0.874642,-5.7596 -6.5506875,-6.16465 C 3.2219974,286.83292 -3.0740551,283.125 2.34375,283.125 c 0.7734375,0 1.40625,-0.39152 1.40625,-0.87004 0,-0.47853 2.3203125,-1.15995 5.15625,-1.51428 2.835938,-0.35432 5.169668,-1.12296 5.186065,-1.70807 0.0164,-0.58513 0.575158,-0.34622 1.241688,0.53089 0.66653,0.87712 2.024206,1.57872 3.01706,1.55913 0.992853,-0.0196 3.34638,0.26055 5.230061,0.62256 4.278828,0.8223 5.91455,-1.45156 4.907135,-6.82154 -0.611356,-3.25881 -5.752556,-9.61115 -7.778681,-9.61115 -1.248255,0 -2.188864,-4.83322 -1.143962,-5.87812 3.182341,-3.18234 16.257989,8.38147 22.836961,20.1965 4.272105,7.67218 7.428206,10.93608 15.469418,15.99779 5.137672,3.23402 7.184169,3.28143 6.586051,0.15258 -0.300437,-1.57163 -0.0276,-2.34375 0.828209,-2.34375 0.701934,0 1.276245,-0.63281 1.276245,-1.40625 0,-0.77344 0.421875,-1.40625 0.9375,-1.40625 0.515625,0 0.9375,-0.80859 0.9375,-1.79688 0,-0.98827 0.488506,-1.9597 1.08557,-2.15872 1.603508,-0.53451 0.121385,-5.4194 -1.644297,-5.4194 -1.290324,0 -4.502735,-2.88193 -7.476081,-6.70698 -3.684936,-4.74046 -2.352972,-10.55845 1.385866,-6.05343 1.35542,1.63318 8.156394,3.38541 13.139901,3.38541 l 3.785671,0 -0.572342,-4.45313 c -0.722035,-5.61782 -1.498299,-6.482 -4.56672,-5.08394 -5.577718,2.54138 -11.734648,0.6847 -6.309443,-1.90267 3.570528,-1.70285 4.390582,-7.60129 1.002538,-7.21102 -2.682441,0.309 -6.349561,-0.85921 -8.057028,-2.56667 -0.705409,-0.70542 -1.885242,-1.28257 -2.62185,-1.28257 -0.736607,0 -1.339285,-0.47897 -1.339285,-1.06437 0,-0.58541 -0.983348,-1.97571 -2.185216,-3.08956 -2.175029,-2.01575 -4.805427,-7.91793 -3.922319,-8.80104 0.645466,-0.64546 7.765165,2.65719 9.04022,4.19354 1.594442,1.92118 6.711983,1.55473 8.568539,-0.61357 0.882983,-1.03125 2.23661,-1.875 3.008058,-1.875 1.523371,0 1.842855,-10.88308 0.34663,-11.8078 -0.40878,-0.25264 -1.435408,-1.91799 -2.281394,-3.70077 -0.845987,-1.78279 -1.911964,-3.24143 -2.368838,-3.24143 -0.456874,0 -0.83068,-0.42188 -0.83068,-0.9375 0,-1.78648 3.563484,-0.92665 5.760975,1.39005 3.372356,3.55532 6.332825,1.96135 6.39671,-3.44409 0.0164,-1.38754 0.396275,-2.74929 0.844172,-3.0261 0.447897,-0.27682 1.094144,-2.25299 1.436105,-4.3915 1.225563,-7.66425 5.11862,-9.16542 5.219723,-2.01273 0.03025,2.14063 2.230959,2.91952 3.311065,1.17187 2.854627,-4.61888 4.617017,4.72446 1.880776,9.97096 -2.775394,5.32158 -1.04855,17.54795 2.643987,18.71992 2.769034,0.87885 4.648946,-2.0828 3.929659,-6.19088 -2.662641,-15.20715 -1.721044,-20.1341 4.464688,-23.36154 3.53107,-1.84237 3.19455,-3.18059 -1.29833,-5.16284 -4.188721,-1.84806 -9.27703,-6.60635 -9.27703,-8.67534 0,-0.71315 -0.632813,-1.53946 -1.40625,-1.83625 -0.773438,-0.29681 -1.40625,-1.13775 -1.40625,-1.86879 0,-2.18533 -4.68476,-3.41432 -12.890625,-3.38171 -8.83903,0.0352 -9.129139,-0.35813 -3.984375,-5.40103 2.0625,-2.02166 3.75,-4.32527 3.75,-5.11913 0,-0.79385 0.404093,-1.44337 0.897983,-1.44337 0.493891,0 0.7623,-1.58203 0.596464,-3.51563 -0.165835,-1.93359 -0.35899,-4.43471 -0.429233,-5.55803 -0.07025,-1.12333 -0.655058,-2.59989 -1.299589,-3.28125 -2.035289,-2.15159 -3.861212,-6.36401 -3.07619,-7.0968 0.415119,-0.3875 0.943098,-0.1772 1.173288,0.46733 0.23019,0.64454 1.016184,1.17188 1.746652,1.17188 0.730469,0 1.328125,0.42187 1.328125,0.9375 0,0.51562 0.632812,0.9375 1.40625,0.9375 0.773437,0 1.40625,0.63281 1.40625,1.40625 0,0.77344 0.632812,1.40625 1.40625,1.40625 0.773437,0 1.40625,0.42187 1.40625,0.9375 0,1.58141 2.427316,1.04201 4.21875,-0.9375 2.435579,-2.69128 3.28125,-2.32885 3.28125,1.40625 0,2.13056 0.444093,3.28125 1.266353,3.28125 2.373234,0 7.171147,-2.05537 7.171147,-3.07203 0,-2.28486 -2.33145,-7.24047 -3.406406,-7.24047 -0.635109,0 -1.422538,-0.84375 -1.749844,-1.875 -0.327306,-1.03125 -0.93372,-1.875 -1.347588,-1.875 -0.753134,0 -2.318292,-5.28781 -3.260556,-11.01563 -0.307801,-1.87106 -0.109265,-3.04687 0.514464,-3.04687 0.615273,0 0.783789,-0.92399 0.427451,-2.34375 -0.366931,-1.46197 -0.190575,-2.34375 0.46875,-2.34375 0.613753,0 0.85516,-0.88455 0.575681,-2.10938 -1.227353,-5.37891 0.826025,-5.89129 3.550302,-0.8859 3.989462,7.32996 8.166986,6.12867 10.902236,-3.13506 0.67918,-2.30019 1.56463,-4.18216 1.96769,-4.18216 2.0946,0 0.58013,-9.78783 -2.54843,-16.47016 C 99.677316,97.977178 99.628313,97.5 102.68567,97.5 c 1.30525,0 2.52269,-0.527344 2.70544,-1.171875 0.18273,-0.644531 0.83573,-3.019879 1.4511,-5.27855 l 1.11884,-4.106675 3.94559,3.8723 C 116.94218,95.757216 123.75,95.866003 123.75,91.004465 123.75,90.452009 124.20201,90 124.75447,90 c 1.58204,0 3.30822,-2.128989 4.0175,-4.955005 0.97432,-3.881985 3.60691,-6.073199 6.78956,-5.651226 2.34739,0.311229 3.09943,-0.212558 5.49334,-3.826095 3.62614,-5.473545 3.8921,-5.129091 4.686,6.069025 l 0.67279,9.489593 2.69469,-0.395499 c 3.28574,-0.482243 3.85883,0.691505 3.08701,6.322516 -0.61557,4.491061 1.55693,5.915111 4.53455,2.972361 2.52504,-2.495473 4.70691,-2.720033 3.98747,-0.410398 -0.75198,2.414108 -5.83206,9.134728 -6.90488,9.134728 -0.39459,0 -1.51751,2.00391 -2.49537,4.45313 -2.14017,5.36042 -8.80119,18.3277 -9.75188,18.98437 -6.38518,4.41046 -5.76857,29.21381 0.94685,38.08733 1.51153,1.99728 2.75997,3.99601 2.77432,4.44162 0.0749,2.32827 28.6439,32.47105 30.77566,32.47105 1.12612,0 1.24321,-0.81995 0.63586,-4.45313 -0.40943,-2.44921 -0.81838,-6.14062 -0.90879,-8.20312 -0.0904,-2.0625 -0.23463,-5.06208 -0.32051,-6.66574 -0.15379,-2.87178 -5.46374,-9.74051 -7.53001,-9.74051 -0.5155,0 -1.17745,-0.75671 -1.47099,-1.68158 -0.29354,-0.92487 -2.00947,-3.24615 -3.81317,-5.15842 -1.80371,-1.91227 -3.27947,-3.89775 -3.27947,-4.41218 0,-0.51442 -0.63281,-0.93532 -1.40625,-0.93532 -0.78125,0 -1.40625,-0.83333 -1.40625,-1.875 0,-1.25 0.625,-1.875 1.875,-1.875 1.03125,0 1.875,0.41384 1.875,0.91964 0,0.5058 1.05469,1.18434 2.34375,1.50788 1.28906,0.32354 2.34375,0.96438 2.34375,1.42411 0,0.45973 1.23047,0.83587 2.73438,0.83587 1.5039,0 2.89609,0.48516 3.09375,1.07812 1.12326,3.36981 5.88912,-0.73986 6.35937,-5.48378 0.53032,-5.35 4.6875,-6.04246 4.6875,-0.7808 0,1.30568 0.42188,2.37396 0.9375,2.37396 0.51563,0 0.9375,0.63281 0.9375,1.40625 0,5.14102 4.21415,0.37973 5.58647,-6.31178 0.6062,-2.95585 1.44893,-5.58858 1.87275,-5.85051 0.42381,-0.26194 1.05184,-1.64038 1.39562,-3.06323 2.60878,-10.79739 5.70827,-10.26854 5.59084,0.95396 l -0.0856,8.17781 2.51396,0 c 2.26948,0 2.63316,-0.49687 3.73962,-5.10907 2.02025,-8.42138 4.48362,-7.49343 6.09652,2.29657 1.42539,8.65192 4.05125,9.84217 7.23879,3.28125 2.82513,-5.81494 6.36352,-5.26718 6.36352,0.98511 0,5.46666 1.76481,8.85864 4.60905,8.85864 3.54784,0 12.26595,2.69253 12.26595,3.78826 0,1.89095 -11.41791,9.33674 -14.31761,9.33674 -3.69961,0 -12.86989,2.88737 -12.86989,4.05223 0,0.49352 -0.71762,1.42206 -1.59472,2.0634 -2.32661,1.70125 -2.36678,11.04131 -0.0495,11.50524 1.12955,0.22613 2.56073,-1.15815 4.61655,-4.46529 3.92012,-6.30614 5.97397,-4.94492 5.77234,3.82571 -0.10273,4.46896 0.25376,6.07965 1.65595,7.48184 2.3712,2.37119 2.25524,3.64467 -0.61362,6.7386 -2.53082,2.72938 -2.46287,6.29827 0.11993,6.29827 0.73868,0 1.34307,0.80208 1.34307,1.78239 0,2.23007 -5.70435,5.71761 -9.35191,5.71761 -4.80873,0 -5.64809,0.79546 -5.64809,5.35264 0,4.85524 4.65737,19.5217 8.03448,25.30128 3.16277,5.41276 5.86315,14.17699 7.43146,24.11915 2.61243,16.56135 8.80171,26.68414 10.21764,16.7113 0.34774,-2.44921 1.00852,-6.77343 1.46839,-9.60937 1.11266,-6.86138 1.18322,-18.48053 0.12425,-20.45923 -2.38826,-4.46249 -2.0718,-17.97827 0.42093,-17.97827 0.72111,0 1.37038,-1.28432 1.54033,-3.04688 0.33404,-3.46457 3.80143,-3.99879 5.97494,-0.92055 4.66234,6.60304 8.07084,8.11952 10.15585,4.51845 3.70654,-6.40169 11.80118,-8.1529 11.83358,-2.56009 0.0217,3.73048 1.20058,4.91146 5.47554,5.48485 2.13681,0.2866 3.88511,0.88743 3.88511,1.33516 0,3.66311 6.62107,0.46853 9.48532,-4.57656 1.68324,-2.96485 3.4017,-5.53125 3.81881,-5.70313 0.4171,-0.17188 0.75837,-0.88526 0.75837,-1.5853 0,-0.70003 0.46904,-1.56268 1.04231,-1.91698 2.7588,-1.70503 4.49624,8.8694 2.31504,14.08976 -2.29754,5.4988 1.50408,10.81877 7.73103,10.81877 0.60452,0 1.09912,0.63281 1.09912,1.40625 0,2.17599 3.53749,1.67771 4.26044,-0.60011 0.49433,-1.55747 -0.14462,-2.72223 -2.85581,-5.20601 -4.01529,-3.67848 -3.79573,-5.20036 0.32675,-2.2649 5.91212,4.2098 8.29234,2.00161 4.63202,-4.29727 -1.84361,-3.17258 -3.58678,-5.25498 -11.75402,-14.04139 -1.16016,-1.24812 -2.10938,-2.86197 -2.10938,-3.58634 0,-0.72438 -0.57123,-1.65443 -1.26939,-2.06677 -0.69816,-0.41234 -1.7677,-1.69893 -2.37673,-2.85908 -0.60904,-1.16016 -1.72531,-2.10938 -2.48061,-2.10938 -0.7553,0 -1.37327,-0.36914 -1.37327,-0.82031 0,-0.45117 -1.32777,-1.08587 -2.9506,-1.41043 -11.81473,-2.36295 -20.90437,-8.71821 -21.96614,-15.35822 -0.70497,-4.40856 0.46208,-5.02673 5.71766,-3.02856 3.65084,1.38805 13.37171,-0.37421 15.66957,-2.84067 3.11909,-3.34795 0.16728,-21.10004 -4.29242,-25.81444 -1.112,-1.17551 -3.2629,-3.85912 -4.77979,-5.96358 -1.51687,-2.10446 -3.0989,-3.82629 -3.51562,-3.82629 -0.41671,0 -0.75766,-0.64456 -0.75766,-1.43236 0,-1.19752 0.96991,-1.33298 5.91558,-0.82629 4.76998,0.4887 6.20944,0.3122 7.43303,-0.91139 1.8761,-1.8761 5.40139,-1.99239 5.40139,-0.17818 0,0.73662 0.57715,1.91644 1.28257,2.62185 0.70541,0.70542 1.57758,2.21211 1.93817,3.34822 0.36058,1.13611 1.04906,2.06565 1.52994,2.06565 0.48087,0 0.87432,0.78256 0.87432,1.73903 0,1.90352 5.21047,6.69847 7.27895,6.69847 4.11676,0 6.66697,-9.79147 5.20263,-19.97537 -1.02706,-7.14277 7.29521,-7.75281 9.53404,-0.69886 1.1348,3.57543 6.16116,5.99344 12.6179,6.07004 5.989,0.0711 6.15539,0.1395 6.44437,2.65106 0.16316,1.41797 0.6905,2.57813 1.17188,2.57813 2.33881,0 0.55807,3.61889 -2.5799,5.243 -4.35244,2.25267 -6.48484,4.29387 -7.35725,7.0426 -0.37675,1.18701 -1.26151,2.73472 -1.96615,3.43936 -0.70463,0.70463 -1.56388,2.40763 -1.90944,3.78443 -0.34555,1.37682 -1.18994,3.06494 -1.87641,3.75142 -1.70473,1.70473 -1.61636,10.58147 0.12832,12.88813 0.75703,1.00089 1.38984,2.32821 1.40625,2.94959 0.0164,0.62138 1.2385,3.78544 2.71579,7.03125 1.4773,3.2458 3.15575,7.06163 3.7299,8.47959 0.57416,1.41797 1.68578,2.57813 2.47027,2.57813 0.78449,0 1.42635,0.56153 1.42635,1.24783 0,0.68631 1.16016,1.84579 2.57812,2.57664 1.41797,0.73083 2.78907,1.59845 3.04688,1.92805 1.68515,2.1543 11.25,4.53444 11.25,2.79947 0,-3.71633 -9.13535,-16.05199 -11.88752,-16.05199 -0.68061,0 -1.23748,-0.84375 -1.23748,-1.875 0,-1.17187 -0.625,-1.875 -1.66665,-1.875 -0.91666,0 -2.3785,-0.73828 -3.24855,-1.64063 -0.87006,-0.90234 -2.44037,-2.45271 -3.4896,-3.44528 -1.04924,-0.99256 -1.9077,-2.54969 -1.9077,-3.46029 0,-0.91061 -0.42302,-1.91708 -0.94003,-2.23662 -1.77817,-1.09896 0.85111,-4.2175 3.55114,-4.21195 3.40661,0.007 9.21811,1.66998 10.75289,3.07698 2.11217,1.93631 5.27924,3.48029 7.13894,3.48029 0.98993,0 1.99576,0.83128 2.2687,1.875 0.39238,1.50047 1.27876,1.875 4.43743,1.875 3.48555,0 3.88977,-0.21925 3.45679,-1.875 -0.26968,-1.03125 -0.0778,-1.875 0.42637,-1.875 1.22652,0 3.59527,-2.42658 3.59527,-3.68303 0,-0.55246 0.62799,-1.00447 1.39553,-1.00447 1.80517,0 5.16697,-2.88042 5.16697,-4.4271 0,-0.65885 0.42187,-1.1979 0.9375,-1.1979 0.51562,0 0.9375,0.42187 0.9375,0.9375 0,0.51562 1.24578,0.9375 2.76839,0.9375 1.52261,0 3.81507,0.47691 5.09437,1.05979 l 2.32598,1.05978 -1.81312,4.59992 c -2.22248,5.63848 -2.42254,11.09301 -0.40687,11.09301 0.77344,0 1.40625,-0.42188 1.40625,-0.9375 0,-0.51563 0.84375,-0.9375 1.875,-0.9375 1.04167,0 1.875,-0.625 1.875,-1.40625 0,-0.78125 0.83333,-1.40625 1.875,-1.40625 1.03125,0 1.875,-0.37267 1.875,-0.82816 0,-0.45548 0.84375,-1.0488 1.875,-1.31848 1.24793,-0.32634 1.875,-0.0288 1.875,0.88979 0,3.30561 -4.55213,8.75685 -7.3125,8.75685 -0.92813,0 -2.19375,0.50625 -2.8125,1.125 -1.2806,1.2806 -1.54018,6.375 -0.32483,6.375 0.4401,0 0.28825,2.00391 -0.33744,4.45312 -2.55531,10.00268 -2.54958,10.982 0.0809,13.82036 1.97099,2.12674 2.43957,3.54637 2.41047,7.30294 -0.0726,9.36923 18.84472,14.57596 22.54943,6.20643 0.66228,-1.49619 1.51822,-2.72035 1.90208,-2.72035 1.22235,0 4.85608,-3.2663 12.03075,-10.81422 2.54274,-2.67504 2.25848,-4.76921 -0.83315,-6.13769 -3.26738,-1.44628 -6.82185,-7.33137 -6.09855,-10.09729 0.40802,-1.56025 0.10756,-2.0133 -1.33519,-2.0133 -1.42296,0 -1.9986,-0.82847 -2.44276,-3.51563 -0.83089,-5.02681 -0.7348,-8.67187 0.2286,-8.67187 2.62534,0 10.41966,6.08741 10.41966,8.13782 0,0.68045 0.42188,1.23718 0.9375,1.23718 0.51563,0 0.94079,0.52734 0.94481,1.17187 0.009,1.50917 4.32997,3.51563 7.57025,3.51563 2.79701,0 3.63775,-1.76414 3.65964,-7.67904 0.017,-4.57988 0.99224,-4.96712 4.13193,-1.64061 1.43127,1.51643 2.98842,2.75715 3.46034,2.75715 0.47191,0 0.85803,0.68201 0.85803,1.51559 0,1.05378 0.57104,1.36627 1.87406,1.02551 1.03075,-0.26954 2.11033,-0.10781 2.39908,0.35941 1.24913,2.02113 7.91436,-0.59705 7.91436,-3.10886 0,-0.87194 3.4977,-4.47915 4.34316,-4.47915 0.32624,0 1.35854,-0.88249 2.29399,-1.96108 2.2904,-2.64085 3.67535,-1.52296 3.67535,2.96663 0,3.99978 -1.37673,7.14908 -3.98437,9.11432 -0.90235,0.68005 -1.64063,1.84534 -1.64063,2.58954 0,0.7442 -0.39097,1.35309 -0.86884,1.35309 -0.47786,0 -1.47499,1.16016 -2.21586,2.57812 -0.74087,1.41797 -2.0348,3.84376 -2.87539,5.39063 -1.96336,3.61299 -1.92951,4.38451 0.29718,6.77458 1.0104,1.08453 2.10316,3.03199 2.42836,4.32769 0.32519,1.2957 1.186,2.58403 1.91291,2.86297 0.7269,0.27894 1.32164,1.15321 1.32164,1.94284 0,0.78962 0.58164,1.43567 1.29251,1.43567 1.53951,0 3.84249,-5.07998 2.9544,-6.51693 -0.37058,-0.59962 0.55883,-1.24109 2.30387,-1.5901 2.2607,-0.45214 2.88138,-1.0352 2.7328,-2.56712 -0.10574,-1.09015 0.31084,-3.21548 0.92575,-4.72296 1.44096,-3.53259 2.43359,-15.54039 1.28466,-15.54039 -0.51661,0 -0.56985,-2.18098 -0.1316,-5.39063 0.44692,-3.27305 0.38528,-5.51338 -0.15691,-5.70312 -1.15304,-0.40352 -1.17264,-7.65625 -0.0207,-7.65625 0.47976,0 1.00711,-0.94922 1.17187,-2.10938 0.30698,-2.16146 5.47983,-2.67098 6.23708,-0.61435 0.17188,0.4668 0.85258,0.84873 1.51266,0.84873 0.8909,0 1.15489,1.95661 1.02447,7.59278 -0.18798,8.12394 0.50283,9.37604 4.10836,7.44643 1.28648,-0.6885 1.94826,-1.96802 1.94826,-3.76687 0,-1.4983 0.42188,-2.98491 0.9375,-3.30359 0.51562,-0.31868 0.9375,-2.87483 0.9375,-5.68033 0,-2.80551 0.42188,-5.10092 0.9375,-5.10092 0.51562,0 0.9375,-0.63281 0.9375,-1.40625 0,-0.77344 -0.42188,-1.40625 -0.9375,-1.40625 -0.51562,0 -0.9375,-0.84375 -0.9375,-1.875 0,-1.03125 0.42188,-1.875 0.9375,-1.875 0.51562,0 0.9375,-0.84375 0.9375,-1.875 0,-1.03125 -0.60288,-1.875 -1.33972,-1.875 -0.83018,0 -1.91641,-2.05027 -2.85596,-5.39063 -0.83392,-2.96484 -1.77244,-6.02343 -2.08561,-6.79687 -0.31315,-0.77344 -0.49129,-2.06616 -0.39587,-2.87271 0.0954,-0.80656 -0.83015,-2.0036 -2.05685,-2.66012 -1.2267,-0.6565 -2.76082,-2.54557 -3.40916,-4.19791 C 474.41006,172.02946 465,168.56085 465,172.6686 c 0,0.49656 -0.52734,1.45382 -1.17188,2.12724 -0.64453,0.67343 -1.79235,2.11986 -2.55071,3.21429 -1.77407,2.56025 -4.71491,2.6319 -4.71491,0.11487 0,-1.25 -0.625,-1.875 -1.875,-1.875 -1.6087,0 -1.87818,0.63246 -1.89737,4.45312 -0.0491,9.78804 -2.93835,14.42649 -11.99232,19.25304 -1.89973,1.01272 -3.71555,2.25184 -4.03515,2.75357 -1.06079,1.66535 -4.13069,0.32269 -3.77691,-1.6519 0.18123,-1.01149 0.65386,-6.61485 1.05031,-12.45189 0.39644,-5.83704 1.19739,-11.08939 1.77987,-11.67187 0.58249,-0.58249 1.05907,-1.87554 1.05907,-2.87344 0,-0.9979 1.05469,-2.79182 2.34375,-3.98649 3.86948,-3.58611 0.96073,-9.76164 -4.59785,-9.76164 -0.82275,0 -1.4959,-0.36701 -1.4959,-0.81558 0,-0.44856 -2.00391,-1.10885 -4.45313,-1.46731 -12.65466,-1.85206 -22.02066,-3.83167 -24.56114,-5.1913 -0.98998,-0.52982 -2.67145,-0.96331 -3.7366,-0.96331 -1.06515,0 -1.93663,-0.39345 -1.93663,-0.87432 0,-0.48088 -0.94922,-1.17002 -2.10938,-1.53143 -13.3175,-4.14857 -11.28384,-14.19634 2.91414,-14.39793 7.94804,-0.11284 4.72278,-7.74332 -4.46077,-10.5535 -10.50228,-3.2137 -17.77474,-17.78128 -7.99372,-16.01237 1.50891,0.27289 3.16535,0.81387 3.68098,1.20219 4.42531,3.33266 16.25042,-2.00611 15.09933,-6.81701 -0.2159,-0.90235 -0.0101,-1.64063 0.45719,-1.64063 0.46735,0 0.85619,-0.94922 0.86408,-2.109375 0.0238,-3.493125 1.08068,-3.984375 8.57217,-3.984375 l 7.18025,0 0.92151,3.002541 c 0.6237,2.032199 0.6077,3.107129 -0.0495,3.326189 -6.56101,2.18701 8.16472,19.45252 16.59103,19.45252 0.80172,0 1.45768,0.42187 1.45768,0.9375 0,0.51563 0.81362,0.9375 1.80803,0.9375 0.99443,0 2.44085,0.63281 3.21429,1.40625 6.344,6.344 5.45827,-9.03468 -1.07989,-18.75 -1.388,-2.0625 -3.03345,-4.91016 -3.65653,-6.328125 -0.62309,-1.417969 -1.5467,-2.578125 -2.05247,-2.578125 -0.50577,0 -1.2082,-0.949219 -1.56096,-2.109375 -0.83081,-2.732352 -6.86533,-12.926149 -8.78318,-14.836971 -0.81567,-0.812677 -2.9596,-3.3353 -4.76429,-5.605828 -1.80469,-2.270527 -4.125,-5.007619 -5.15625,-6.082427 -4.1202,-4.294223 -6.64197,-14.79943 -3.44622,-14.356244 2.56389,0.35556 4.05673,-0.287508 3.57594,-1.540405 -0.36705,-0.956521 0.0506,-1.40625 1.30595,-1.40625 1.01508,0 1.84559,-0.133456 1.84559,-0.29657 0,-1.934295 -2.25049,-11.667923 -2.87243,-12.423584 C 418.1854,35.772915 418.45526,24.375 420.2604,24.375 c 1.4843,0 4.0273,-2.888453 4.86404,-5.524784 0.3448,-1.086369 1.02036,-1.975216 1.50124,-1.975216 0.48087,0 0.87432,-0.570243 0.87432,-1.267206 0,-1.785963 5.51197,-7.3508042 6.60925,-6.6726464 1.42625,0.8814665 4.64075,-0.4810652 4.64075,-1.9670736 0,-0.7386907 0.78026,-1.343074 1.73392,-1.343074 0.95366,0 3.59038,-1.257948 5.85938,-2.79544 4.69541,-3.18165453 8.48738,-3.54979263 13.06128,-1.2680356 1.72158,0.8588384 5.1622,1.6653416 7.64581,1.7922294 10.03471,0.5126731 15.52539,5.5952108 25.23784,23.3618232 1.12655,2.060756 2.64322,4.181862 3.37037,4.713569 1.56699,1.145807 3.36537,8.418256 2.64387,10.691498 -0.27799,0.875863 0.079,3.534546 0.7934,5.908184 1.33189,4.425534 1.06621,9.158672 -0.5141,9.158672 -0.48792,0 -0.78945,0.738281 -0.67005,1.640625 0.11939,0.902344 -0.3285,2.90625 -0.9953,4.453125 -0.66681,1.546875 -1.50863,3.65625 -1.87072,4.6875 -1.37779,3.924124 -5.02508,10.78125 -5.73451,10.78125 -2.99814,0 -3.00923,28.23946 -0.0123,31.23641 0.55748,0.55748 1.01359,2.03447 1.01359,3.28222 0,2.66515 4.83341,17.36914 5.85937,17.82512 0.38672,0.17188 0.70313,1.33203 0.70313,2.57812 0,1.2461 0.44677,2.26563 0.99283,2.26563 0.54606,0 0.72866,0.42742 0.40581,0.94982 -0.32287,0.5224 0.13496,3.37006 1.01738,6.32812 0.88242,2.95807 1.6663,6.4036 1.74192,7.65672 0.0757,1.25312 0.60283,2.43351 1.17152,2.62307 0.5687,0.18958 0.81864,1.1682 0.55542,2.17472 -0.56581,2.16366 9.35833,2.66312 16.04196,0.80737 4.31172,-1.19718 9.94816,-0.37236 9.94816,1.45579 0,0.7071 0.48237,1.44643 1.07194,1.64296 1.35093,0.4503 -0.50667,4.20175 -3.28748,6.63911 -1.56212,1.36918 -2.8488,1.56802 -6.88408,1.06384 -3.39609,-0.42431 -4.96288,-0.28999 -4.96288,0.42546 0,0.57504 -0.52734,1.05894 -1.17187,1.07533 -3.79434,0.0966 -6.14414,9.34519 -2.37433,9.34519 0.51295,0 2.53062,1.26562 4.4837,2.8125 4.65291,3.68517 15.9375,3.57862 15.9375,-0.15049 0,-0.43285 1.26563,-0.78701 2.8125,-0.78701 1.63204,0 2.8125,-0.49417 2.8125,-1.1774 0,-0.64757 1.26563,-1.73762 2.8125,-2.42233 1.54688,-0.68471 2.8125,-1.7711 2.8125,-2.41418 0,-0.64309 1.08694,-1.75096 2.41542,-2.46195 1.76079,-0.94234 2.30663,-1.86185 2.01399,-3.3927 -0.22079,-1.155 0.0692,-2.28061 0.64446,-2.50136 0.57524,-0.22073 2.01378,-3.5114 3.19675,-7.31259 2.07565,-6.66954 3.27825,-9.8894 4.90492,-13.13242 3.07323,-6.12699 3.1404,-12.59566 0.2176,-20.95336 -2.27276,-6.49895 -2.69785,-8.82069 -2.04674,-11.17884 0.49425,-1.78999 0.45703,-4.24815 -0.0934,-6.16726 -0.71156,-2.48103 -0.58927,-3.68835 0.54964,-5.42653 0.80563,-1.22956 1.26552,-2.754843 1.02197,-3.389521 -0.24355,-0.634678 0.34783,-2.182631 1.31416,-3.439884 0.96635,-1.25726 1.76637,-3.400945 1.77783,-4.763748 0.0116,-1.385235 0.67824,-2.730086 1.5117,-3.049917 1.81757,-0.697463 3.19665,0.05008 3.19665,1.732766 0,1.912001 2.53065,2.540798 11.48438,2.853552 7.75587,0.270914 11.12835,-1.003224 7.03125,-2.65644 -0.88277,-0.356204 -0.86172,-0.491121 0.0853,-0.546875 0.69147,-0.04071 2.98224,-1.550576 5.09061,-3.355263 2.10838,-1.804688 4.57711,-3.28125 5.48608,-3.28125 0.90896,0 3.0734,-0.838261 4.80988,-1.862802 17.24741,-10.176224 48.62255,7.083826 45.2786,24.908602 -0.3339,1.77986 -0.27911,3.75627 0.12177,4.39202 1.76538,2.7998 1.23204,11.68169 -0.89382,14.88495 -5.69357,8.57909 -5.84882,14.24043 -0.40285,14.6896 3.22064,0.26562 3.48875,0.48904 2.8125,2.34375 -0.41112,1.12756 -0.63987,4.48832 -0.50833,7.46834 0.23296,5.27758 -1.58102,8.32488 -3.38065,5.67917 -1.04991,-1.5435 -12.49184,-3.08972 -16.54602,-2.23597 -2.0625,0.43433 -5.22656,1.11079 -7.03125,1.50323 -1.80468,0.39245 -4.21032,1.70142 -5.34586,2.90882 -1.13553,1.20741 -2.9285,2.19529 -3.98437,2.19529 -1.05587,0 -1.91977,0.3894 -1.91977,0.86533 0,0.47594 -1.6875,2.5195 -3.75,4.54126 -2.0625,2.02176 -3.75,4.52859 -3.75,5.57074 0,1.04214 -0.84375,2.96747 -1.875,4.27849 -3.30344,4.19964 -2.59892,4.77585 4.92188,4.02551 8.93821,-0.89176 11.2596,-0.76402 15.9758,0.87908 5.07301,1.76742 11.05827,1.7789 13.37626,0.0257 6.47939,-4.90075 14.66275,1.57252 8.85106,7.00144 -4.89382,4.57151 -3.38871,5.85166 8.24803,7.01521 7.1376,0.71368 8.1777,1.78639 3.86544,3.98659 -3.97304,2.02713 -9.9385,1.40373 -16.64934,-1.73988 -10.76412,-5.04239 -27.33907,-4.32824 -27.33907,1.17791 0,0.9612 0.35416,1.74763 0.78701,1.74763 3.14739,0 3.0028,5.22467 -0.22648,8.18408 -3.61923,3.31678 -5.93108,3.88236 -6.784,1.65967 -0.29681,-0.77344 -1.12731,-1.40625 -1.84558,-1.40625 -0.71827,0 -1.30595,-0.38061 -1.30595,-0.84578 0,-1.36505 -5.53955,-2.90422 -10.45239,-2.90422 -2.50119,0 -4.54761,0.42187 -4.54761,0.9375 0,0.51562 -0.54015,0.9375 -1.20034,0.9375 -0.66018,0 -4.57703,1.42411 -8.70411,3.1647 -4.12709,1.74058 -9.25765,3.46101 -11.40125,3.82316 -4.13079,0.6979 -9.11843,4.69242 -8.03927,6.43855 0.43341,0.70126 0.74033,0.66877 0.99849,-0.10572 0.27125,-0.81376 0.87268,-0.85066 2.20893,-0.13551 1.00991,0.54049 2.55791,0.89194 3.44,0.78099 2.02006,-0.25405 6.86962,1.01006 8.35568,2.17806 0.61979,0.48712 1.99089,0.61145 3.04688,0.2763 1.11641,-0.35434 1.91999,-0.19057 1.91999,0.39129 0,0.55038 0.63281,1.00068 1.40625,1.00068 0.77344,0 1.40625,0.36676 1.40625,0.81502 0,1.186 9.46666,1.2135 10.89071,0.0316 0.66375,-0.55086 2.12348,-0.71062 3.24385,-0.35503 1.24518,0.39521 2.31612,0.19495 2.75499,-0.51517 0.50496,-0.81703 0.90619,-0.56866 1.35238,0.83718 0.34894,1.09938 1.2388,1.99887 1.9775,1.99887 3.91887,0 0.67039,6.7093 -4.51631,9.32778 -2.98901,1.50899 -3.35299,3.42493 -0.80434,4.23384 0.97558,0.30964 1.99077,1.39275 2.25598,2.40693 0.86043,3.29028 11.80206,2.00422 20.61701,-2.42328 2.51338,-1.2624 4.74606,-2.29527 4.96151,-2.29527 0.97609,0 0.20049,10.01697 -0.88637,11.44752 -1.52165,2.00283 -5.48923,3.55248 -9.09544,3.55248 -2.43219,0 -2.75147,0.32636 -2.75147,2.8125 0,1.54688 0.3848,2.8125 0.85509,2.8125 1.54781,0 2.15917,7.43852 1.00634,12.2441 -1.0729,4.47233 -4.47606,7.44344 -8.52584,7.44344 -1.01198,0 -3.64809,-6.17966 -3.64809,-8.55199 0,-1.4837 -0.72495,-1.76051 -4.61082,-1.76051 -6.51804,0 -7.25735,-0.44782 -6.82687,-4.13518 0.26753,-2.29153 1.04175,-3.45756 2.8555,-4.30054 4.77183,-2.21784 5.18132,-2.47986 6.06508,-3.8809 2.34723,-3.72116 -6.12993,-12.06853 -12.24852,-12.06099 -1.16015,0.001 -2.10937,-0.41927 -2.10937,-0.93489 0,-0.51563 -1.23549,-0.9375 -2.74553,-0.9375 -1.51005,0 -3.345,-0.59946 -4.07766,-1.33212 -2.40255,-2.40254 -9.04845,-3.55636 -16.62258,-2.8859 l -7.16483,0.63424 -0.13944,5.29951 c -0.0767,2.91473 -0.57211,5.44373 -1.10094,5.62001 -0.52884,0.17628 -0.96152,1.12911 -0.96152,2.11738 0,0.98829 -0.63281,1.79688 -1.40625,1.79688 -1.69553,0 -1.89194,2.71743 -0.23438,3.24271 0.64454,0.20425 3.59766,0.64324 6.5625,0.97553 4.48966,0.5032 5.39063,0.90628 5.39063,2.41172 0,1.01426 0.64324,1.80754 1.46565,1.80754 1.07727,0 1.3878,0.77039 1.17187,2.90728 -0.29104,2.88028 -8.12646,5.21323 -9.58468,2.85379 -1.16682,-1.88796 -13.67784,-1.16392 -13.67784,0.79157 0,1.03667 0.54719,1.88486 1.21598,1.88486 1.35637,0 6.45181,5.18088 10.37295,10.54687 1.551,2.12252 2.09659,3.51563 1.37685,3.51563 -2.52368,0 -11.09078,-2.33719 -11.09078,-3.02568 0,-0.39837 -0.41821,-0.72432 -0.92934,-0.72432 -0.51115,0 -2.13885,-1.26563 -3.61713,-2.8125 -1.47827,-1.54688 -3.59132,-2.8125 -4.69565,-2.8125 -1.10434,0 -2.00788,-0.42188 -2.00788,-0.9375 0,-0.51563 -1.05469,-0.9375 -2.34375,-0.9375 -1.82065,0 -2.34375,0.48125 -2.34375,2.15625 0,1.18594 -0.49269,2.64894 -1.09489,3.25114 -2.77786,2.77786 -5.04902,18.13621 -2.98687,20.19834 0.33315,0.33316 0.71317,1.97155 0.8445,3.64088 0.13131,1.66933 0.70249,3.18972 1.26926,3.37864 0.56678,0.18893 1.0305,1.1981 1.0305,2.24262 0,1.0445 0.94922,2.9005 2.10937,4.12442 2.17531,2.29487 4.45313,2.97017 4.45313,1.32021 0,-0.51563 0.62924,-0.9375 1.39831,-0.9375 0.76907,0 1.92523,-0.84375 2.56926,-1.875 0.64402,-1.03125 1.71553,-1.875 2.38111,-1.875 0.66559,0 1.44684,-0.61675 1.7361,-1.37056 0.28926,-0.75382 1.33071,-1.62599 2.31433,-1.93818 C 539.19522,302.94157 540,302.08177 540,301.34307 540,300.54781 540.9241,300 542.26563,300 c 1.24609,0 2.43366,-0.50414 2.63906,-1.12031 0.25764,-0.77295 3.55201,-1.1377 10.625,-1.17637 5.63836,-0.0308 10.68454,-0.33701 11.21373,-0.68041 5.02907,-3.2634 10.57567,3.29553 8.45486,9.99799 -2.19433,6.93478 -1.88479,10.7916 0.8661,10.7916 1.74812,0 2.37312,-0.49381 2.37312,-1.875 0,-1.05256 0.625,-1.875 1.42488,-1.875 5.80426,0 9.80894,-5.62145 7.01262,-9.84375 -1.02445,-1.54688 -1.86543,-3.41813 -1.86882,-4.15833 -0.004,-0.7402 -0.95275,-2.35339 -2.10966,-3.58487 -1.95182,-2.07762 -1.98561,-2.305 -0.46875,-3.15388 0.8991,-0.50316 1.63473,-1.52669 1.63473,-2.2745 0,-1.61686 3.20595,-1.7786 7.25768,-0.36616 2.16671,0.75531 2.73595,1.42961 2.37432,2.8125 -0.26563,1.01571 -0.003,1.81899 0.59436,1.81899 0.58853,0 1.47104,1.05469 1.96114,2.34375 1.06604,2.8039 3.75,3.1394 3.75,0.46875 0,-1.25 0.625,-1.875 1.875,-1.875 1.13252,0 1.90431,-0.64967 1.94902,-1.64063 0.0443,-0.9801 0.26438,-1.16881 0.54687,-0.46875 0.26007,0.64454 1.28146,1.17188 2.26973,1.17188 1.4896,0 1.79688,0.68288 1.79688,3.99323 0,5.17721 1.87815,6.4187 8.89566,5.88018 22.19019,-1.70283 24.40501,0.81741 2.82309,3.2124 -14.8854,1.65187 -17.74785,2.77217 -25.2515,9.88294 -4.59408,4.35355 -7.29414,6.19785 -15.29538,10.44769 -1.67578,0.89008 -3.04687,1.9922 -3.04687,2.44916 0,1.56239 2.85871,3.69227 4.24284,3.16113 0.80297,-0.30813 1.38216,0.007 1.38216,0.75269 0,0.84325 1.13348,1.28308 3.3066,1.28308 1.81864,0 3.89671,0.48974 4.61796,1.08832 0.72123,0.59857 1.86998,1.01266 2.55276,0.92017 3.55622,-0.48168 5.25912,2.02356 2.17893,3.20554 -4.36857,1.67637 -0.77771,5.36662 7.03125,7.22585 7.13155,1.69795 22.11249,-4.18369 15.23437,-5.98113 -1.5625,-0.40833 -1.5625,-0.43392 0,-0.5375 0.90235,-0.0598 1.64063,-0.53866 1.64063,-1.06411 0,-0.55092 0.9922,-0.70633 2.34375,-0.36711 1.44412,0.36244 2.34375,0.18938 2.34375,-0.4509 0,-0.57152 0.63281,-1.03913 1.40625,-1.03913 0.77344,0 1.40625,-0.63281 1.40625,-1.40625 0,-0.77344 0.42187,-1.40625 0.9375,-1.40625 0.51562,0 0.9375,0.42188 0.9375,0.9375 0,0.51563 0.84375,0.9375 1.875,0.9375 1.03125,0 1.91227,0.31641 1.95782,0.70313 0.0456,0.38671 0.28185,2.8125 0.52513,5.39062 0.24327,2.57813 0.56185,5.74219 0.70794,7.03125 0.14609,1.28906 0.33166,3.3387 0.41237,4.55476 0.15988,2.40898 1.97775,2.34703 8.11549,-0.27655 6.42489,-2.74633 7.70063,-3.04304 11.95312,-2.78005 2.44922,0.15147 4.45542,-0.0182 4.45821,-0.377 0.003,-0.35883 3.3778,-0.72581 7.5,-0.81552 4.12221,-0.0897 7.49492,0.2267 7.49492,0.70313 0,0.47643 0.81885,0.86623 1.81967,0.86623 2.58172,0 3.30913,1.70847 1.55342,3.64852 -0.82395,0.91045 -1.49809,2.10154 -1.49809,2.64687 0,0.54531 -2.10938,3.23825 -4.6875,5.9843 -3.97898,4.23815 -4.6875,5.54839 -4.6875,8.66848 0,5.85768 -5.85954,9.83529 -7.11572,4.83031 -1.94344,-7.74329 -19.35396,-12.43325 -28.33929,-7.6339 -10.72775,5.73004 -24.99955,12.79313 -25.8519,12.79406 -1.44212,0.002 -5.19986,3.47623 -8.89226,8.22233 -4.85813,6.24451 -33.0117,23.65153 -38.25324,23.65153 -1.99671,0 -13.83643,6.91522 -20.78037,12.13718 -4.15073,3.12143 -7.88897,5.67532 -8.30721,5.67532 -0.41823,0 -1.89785,1.05469 -3.28804,2.34375 -1.3902,1.28906 -2.82264,2.34375 -3.18319,2.34375 -0.36055,0 -2.06646,1.07616 -3.79091,2.39146 -2.98523,2.27694 -4.20348,5.10854 -2.19787,5.10854 0.51562,0 0.9375,0.63854 0.9375,1.41897 0,0.78043 0.38551,2.15153 0.8567,3.04688 0.47118,0.89535 1.34522,4.05384 1.94231,7.01887 0.59708,2.96503 1.58267,5.93598 2.19018,6.60209 0.60751,0.66612 1.56952,2.03706 2.13781,3.04653 0.56828,1.00947 1.93938,1.97022 3.04687,2.13499 1.1075,0.16476 2.01363,0.64516 2.01363,1.06754 0,0.42238 1.43583,1.03732 3.19073,1.36655 2.62219,0.49192 4.30927,1.99176 4.30927,3.83101 0,0.54325 -6.02281,1.77134 -7.40017,1.50896 -1.85605,-0.35358 -2.88135,1.68235 -2.89798,5.75448 -0.0118,2.88585 -0.35024,3.51563 -1.88935,3.51563 -1.03125,0 -1.876,-0.31641 -1.87723,-0.70313 -9.4e-4,-0.38671 -2.427,-1.95227 -5.39063,-3.47902 -2.96361,-1.52675 -5.72576,-3.31972 -6.1381,-3.98437 -2.60359,-4.19679 -8.52719,-0.2175 -7.99431,5.37031 0.3119,3.27058 0.0791,3.8727 -1.66639,4.31081 -3.20378,0.80409 -8.27139,-4.60726 -7.4039,-7.90612 1.59432,-6.06281 1.63944,-12.35848 0.0886,-12.35848 -0.82116,0 -1.49302,-0.42188 -1.49302,-0.9375 0,-4.37288 -7.27698,3.22647 -17.73673,18.52249 -2.18318,3.1926 -13.3941,28.09801 -14.99449,33.31071 -0.50836,1.65581 -1.7893,5.50182 -2.84654,8.5467 -2.29151,6.59968 -2.38488,8.0576 -0.51599,8.0576 0.78125,0 1.40625,0.83333 1.40625,1.875 0,1.03125 0.60439,1.875 1.34307,1.875 0.7387,0 1.61087,0.84375 1.93818,1.875 0.32731,1.03125 1.17106,1.875 1.875,1.875 0.70394,0 1.52236,0.76392 1.8187,1.69762 0.74866,2.35881 6.7315,4.75715 11.77505,4.72026 7.59254,-0.0555 8.29842,0.10453 8.90625,2.01962 0.32731,1.03125 1.17106,1.875 1.875,1.875 0.70394,0 1.51863,0.73828 1.81042,1.64062 3.784,11.7021 35.22083,6.4219 35.22083,-5.91576 0,-1.58698 6.63491,-2.7496 7.51988,-1.3177 0.37594,0.60829 1.49882,0.84722 2.49529,0.53096 1.62598,-0.51607 1.81175,-0.0938 1.81175,4.11843 0,2.58139 -0.38648,4.69345 -0.85885,4.69345 -0.47235,0 -0.60179,1.02417 -0.28761,2.27594 0.34308,1.36692 0.0623,2.78484 -0.70288,3.55005 -0.70076,0.70076 -1.84058,2.84065 -2.53293,4.75531 -0.69234,1.91466 -1.73559,3.4812 -2.31832,3.4812 -1.09526,0 -2.72275,2.74011 -3.68504,6.2043 -0.72999,2.62797 0.92594,6.81479 2.99776,7.57946 3.34777,1.23561 2.1791,7.77874 -1.38935,7.77874 -0.67845,0 -1.47638,0.63281 -1.77317,1.40625 -0.2968,0.77344 -0.93345,1.40625 -1.41479,1.40625 -1.44581,0 -6.42424,4.02081 -6.42424,5.18852 0,0.59725 -0.63299,2.35476 -1.40663,3.90558 -2.50619,5.02377 -2.88455,16.31907 -0.62608,18.69034 3.43848,3.61022 3.5831,8.17517 0.35688,11.26472 -2.78059,2.66279 -6.76167,8.94314 -6.76167,10.66686 0,1.15925 -3.47101,4.65898 -4.62075,4.65898 -0.47891,0 -2.43636,1.47656 -4.34989,3.28125 -1.91352,1.80469 -4.0078,3.28125 -4.65394,3.28125 -0.64615,0 -1.3944,0.57223 -1.66279,1.27163 -0.55017,1.43373 -8.15013,3.6685 -8.15013,2.39655 0,-0.45098 1.05469,-1.08466 2.34375,-1.4082 1.28906,-0.32354 2.34375,-1.12612 2.34375,-1.78352 0,-0.6574 0.84375,-1.41592 1.875,-1.6856 1.03125,-0.26968 1.875,-1.16263 1.875,-1.98434 0,-0.82171 0.52734,-1.5049 1.17187,-1.51821 1.70442,-0.0352 4.68279,-7.06811 4.7943,-11.32096 0.0527,-2.01017 0.3772,-3.65485 0.72108,-3.65485 0.34389,0 0.62525,-1.47656 0.62525,-3.28125 0,-3.07653 -2.71753,-4.92824 -3.71875,-2.53394 -2.1253,5.0824 -24.21875,6.75759 -24.21875,1.83634 0,-0.38976 -0.63281,-0.70865 -1.40625,-0.70865 -0.77344,0 -1.40625,-0.56799 -1.40625,-1.26221 0,-1.87961 -2.81834,-7.17529 -3.81866,-7.17529 -2.64844,0 -0.39883,-2.6804 2.64678,-3.15364 7.19231,-1.11756 8.67227,-1.14845 8.68808,-0.18134 0.0877,5.36581 15.92299,7.54867 17.62916,2.43013 0.17786,-0.53357 1.13199,-0.97015 2.12026,-0.97015 0.98829,0 1.79688,-0.53905 1.79688,-1.1979 0,-1.25281 -3.23364,-4.4271 -4.50988,-4.4271 -0.86993,0 -2.99012,-5.53138 -2.99012,-7.80094 0,-0.86573 -0.42188,-1.57406 -0.9375,-1.57406 -0.51562,0 -0.9375,-0.57121 -0.9375,-1.26936 0,-1.24216 -4.0944,-6.23064 -5.11392,-6.23064 -0.28378,0 -2.04052,-1.6875 -3.90386,-3.75 -1.86334,-2.0625 -3.73895,-3.75 -4.16801,-3.75 -0.42905,0 -1.90924,-1.04644 -3.28927,-2.32541 -1.38004,-1.27899 -3.93303,-2.8403 -5.6733,-3.46959 C 466.42387,585.13821 465,584.28621 465,583.87417 c 0,-0.41204 -1.89844,-0.74917 -4.21875,-0.74917 -2.32031,0 -4.21875,0.42187 -4.21875,0.9375 0,1.82302 -4.54222,0.99715 -5.15625,-0.9375 -0.32731,-1.03125 -0.98855,-1.875 -1.46943,-1.875 -0.48087,0 -0.87432,-0.63281 -0.87432,-1.40625 0,-1.7644 -1.90561,-1.80734 -4.24645,-0.0957 -2.28883,1.67362 -2.34664,20.47825 -0.10549,34.31442 0.79343,4.89844 1.93113,12.00485 2.52822,15.79201 1.89813,12.03934 -4.00826,44.21455 -9.40596,51.23924 -0.3962,0.51562 -2.91312,5.25532 -5.59315,10.53268 -2.68002,5.27735 -5.25184,9.82945 -5.71516,10.1158 -0.46332,0.28635 -2.75661,3.98414 -5.09623,8.21732 -4.2851,7.75327 -6.48305,11.08563 -7.15663,10.85028 -0.20097,-0.0702 -1.31462,-0.3105 -2.47477,-0.53395 z M 384.63036,560.29239 c -0.68338,-1.09282 -0.93597,-2.06563 -1.61756,-6.22989 -0.21098,-1.28906 -0.46653,-2.34375 -0.56785,-2.34375 -0.10133,0 -0.28523,-0.84375 -0.40868,-1.875 -0.12343,-1.03125 -0.88515,-5.25 -1.6927,-9.375 -1.20092,-6.1343 -2.32547,-13.46646 -3.01952,-19.6875 -0.6177,-5.53666 -3.6204,-9.58768 -3.76499,-5.07945 -0.27962,8.71814 -6.92878,17.27937 -10.6801,13.75132 -1.02498,-0.96397 -1.13611,-0.70602 -0.62641,1.45399 0.96285,4.08031 -2.36267,8.15539 -6.65528,8.15539 l -3.33757,0 2.48689,3.04687 c 1.36778,1.67579 2.94273,3.94475 3.49989,5.04215 0.97223,1.91496 1.16008,1.9375 4.6669,0.55998 4.57482,-1.79704 6.0615,-0.7227 8.80856,6.36543 2.26723,5.85005 4.21556,7.8993 4.21556,4.4339 0,-5.69636 4.01316,-4.47239 6.00662,1.83195 0.40706,1.28734 1.15993,1.86658 2.00474,1.5424 0.74407,-0.28554 1.05075,-1.00229 0.6815,-1.59279 z m -50.54334,-48.88091 c 0.29569,-0.77057 2.91233,-2.56354 5.81475,-3.98437 l 5.27713,-2.58336 -0.63353,-7.62845 c -0.69223,-8.33513 0.57388,-10.6528 5.81948,-10.6528 1.17433,0 2.13515,-0.374 2.13515,-0.83109 0,-0.45711 1.23659,-1.01259 2.74798,-1.23442 l 2.74797,-0.40331 -0.53651,4.53004 c -0.60502,5.10846 1.23928,8.25128 4.84211,8.25128 1.10602,0 2.48884,0.47789 3.07293,1.06198 4.30891,4.30891 4.87197,-2.14913 0.6379,-7.31627 -1.84945,-2.257 -4.7774,-7.36294 -6.50655,-11.34655 -5.2403,-12.07252 -7.37406,-15.44163 -17.12403,-27.03802 -14.92377,-17.74996 -18.18544,-19.66119 -31.69776,-18.57371 l -5.77572,0.46484 -0.62164,-3.31364 c -0.34191,-1.8225 -0.9752,-3.31363 -1.40732,-3.31363 -0.43212,0 -1.00632,-0.84375 -1.276,-1.875 -0.56927,-2.17688 -3.47836,-2.55927 -3.47836,-0.45723 0,2.1225 9.70288,30.02538 12.87315,37.01973 1.51913,3.35156 4.99072,13.05469 7.71463,21.5625 5.14369,16.06567 6.11963,18.45496 10.22953,25.0439 2.5783,4.13347 4.23881,4.97833 5.14471,2.61758 z m 105.63042,-19.92711 c 1.13181,-3.48046 3.06464,-8.09074 4.29519,-10.24506 2.59142,-4.53677 2.86613,-7.61938 0.75135,-8.4309 -1.12864,-0.4331 -1.34335,-1.33084 -0.89273,-3.73282 0.44606,-2.37767 0.23318,-3.30077 -0.85773,-3.71939 -0.79806,-0.30624 -1.45102,-1.11605 -1.45102,-1.79958 0,-3.18118 -7.58119,-2.83426 -10.76869,0.49277 -2.66273,2.77929 -3.12343,16.13218 -0.61319,17.77235 0.43941,0.28711 1.09371,2.20951 1.454,4.27201 2.17184,12.43274 5.14749,14.41727 8.08282,5.39062 z m -8.52149,-37.22575 c 6.35292,-4.68703 18.05591,-4.8833 22.97593,-0.38535 1.41019,1.28923 3.32812,0.94806 3.32812,-0.59202 0,-0.77344 0.42188,-1.40625 0.9375,-1.40625 0.51563,0 0.9375,-0.61797 0.9375,-1.37327 0,-0.7553 0.84375,-1.82482 1.875,-2.37673 1.03125,-0.55191 1.875,-1.78724 1.875,-2.74518 0,-0.95795 0.63281,-1.98454 1.40625,-2.28135 0.77344,-0.29679 1.40625,-1.39661 1.40625,-2.44405 0,-1.04743 0.41384,-1.90442 0.91964,-1.90442 0.5058,0 1.20357,-1.16016 1.5506,-2.57813 0.34702,-1.41796 0.95443,-2.79329 1.34978,-3.05626 0.39536,-0.26298 1.00894,-1.63408 1.36353,-3.04688 0.89076,-3.54902 -1.73898,-3.46377 -4.78405,0.1551 -3.47464,4.12937 -7.21623,5.11473 -10.27763,2.70663 -1.35709,-1.06748 -2.05135,-2.19868 -1.54281,-2.51379 1.69714,-1.05161 2.29063,-8.83937 0.82433,-10.81685 -1.81711,-2.45059 -6.03861,-0.74159 -8.56328,3.46668 -3.4234,5.7063 -3.94648,6.82547 -5.24388,11.21946 -1.4913,5.05075 -3.32684,5.8958 -6.17248,2.84174 -1.89636,-2.03523 -5.04875,-2.91647 -5.04875,-1.41136 0,0.39399 -1.6875,1.44743 -3.75,2.34097 l -3.75,1.62462 0,6.62692 c 0,10.39169 2.22011,12.49695 8.38345,7.94977 z m -75.25368,-19.02425 c 1.85371,-4.39472 2.38287,-8.43752 1.20002,-9.16856 -0.81022,-0.50074 -0.77505,-0.87137 0.13617,-1.43452 0.95329,-0.58917 0.9908,-1.24573 0.16739,-2.92969 -0.5837,-1.19369 -1.55581,-4.3865 -2.16026,-7.09511 -0.60444,-2.70863 -1.47847,-5.15931 -1.94229,-5.44596 -0.46382,-0.28665 -0.8433,-1.29083 -0.8433,-2.23152 0,-0.94068 -0.79975,-1.91947 -1.77724,-2.17508 -0.97747,-0.25562 -2.4661,-1.91646 -3.30806,-3.69076 -1.06211,-2.23823 -2.74261,-3.7449 -5.4884,-4.92073 -2.17665,-0.93209 -5.28816,-2.30244 -6.91446,-3.04521 -2.10041,-0.95931 -3.45819,-1.07837 -4.6875,-0.41105 -10.5341,5.71838 -23.36137,3.24657 -16.62863,-3.20431 2.26423,-2.16945 4.11679,-4.41694 4.11679,-4.99442 0,-0.57747 0.63281,-1.04995 1.40625,-1.04995 0.77344,0 1.40625,-0.34942 1.40625,-0.77648 0,-4.3428 13.46503,-2.52612 19.30924,2.60518 3.43943,3.01985 16.03413,9.4213 18.53622,9.4213 1.96251,0 0.96864,-31.36799 -1.07939,-34.06673 -0.45475,-0.59924 -1.39652,-2.56608 -2.09282,-4.37077 -1.14224,-2.96048 -3.37606,-6.37508 -6.74839,-10.31556 -4.40297,-5.14473 -7.74759,-23.29008 -4.83184,-26.21378 0.92941,-0.93194 3.55469,1.64242 4.33668,4.25257 2.63457,8.79378 6.23041,12.60746 7.86672,8.34331 0.80315,-2.09299 -4.01286,-12.55574 -6.7821,-14.73402 -1.30548,-1.02689 -3.65491,-4.13743 -5.22096,-6.9123 -3.2895,-5.82868 -5.4862,-6.44377 -7.97374,-2.23272 -0.91376,1.54687 -1.9923,2.8125 -2.39675,2.8125 -0.40445,0 -0.73537,1.06042 -0.73537,2.35647 0,3.77951 -4.6695,10.76853 -7.19467,10.76853 -0.68355,0 -1.24283,0.32837 -1.24283,0.72972 0,0.80992 -9.9408,3.95778 -12.49847,3.95778 -1.88855,0 -3.70383,-3.89998 -2.2469,-4.82726 0.52585,-0.33468 0.695,-1.2889 0.3759,-2.12048 -0.61901,-1.6131 0.92176,-5.83997 2.87416,-7.88485 6.7029,-7.02042 -8.22913,-12.30376 -18.03594,-6.38158 -5.79963,3.50231 -8.71072,4.1597 -10.49938,2.37104 -1.69131,-1.69131 -4.41779,-0.14769 -6.36455,3.60335 -1.00506,1.93656 -4.48611,6.75746 -7.73565,10.7131 -7.41868,9.03069 -12.23472,24.43934 -8.3595,26.74572 0.69282,0.41234 2.48579,2.44748 3.98438,4.52255 1.49858,2.07505 4.07686,5.45005 5.72949,7.5 5.47488,6.79108 11.20005,18.33996 15.60994,31.48858 8.76823,26.14352 10.25578,28.99203 12.5317,23.99692 1.52346,-3.34361 13.89125,-2.83216 16.70128,0.69066 1.05063,1.31711 2.38657,2.39475 2.96876,2.39475 0.58219,0 1.19915,0.37057 1.37103,0.82348 0.45695,1.20414 6.40625,2.33135 6.40625,1.21377 0,-1.2816 4.0503,-0.14561 4.96846,1.3935 0.41234,0.69121 1.36156,1.25675 2.10937,1.25675 0.74782,0 1.35967,0.84375 1.35967,1.875 0,1.04167 0.625,1.875 1.40625,1.875 0.77344,0 1.40625,0.63281 1.40625,1.40625 0,0.77344 0.53133,1.40625 1.18073,1.40625 0.64941,0 1.68804,0.81231 2.30806,1.80512 2.33804,3.7438 12.47235,3.9638 14.01598,0.30425 z m 72.97032,-6.5625 c 2.06039,-1.93359 4.86608,-4.35937 6.23486,-5.39062 3.38508,-2.55034 4.58373,-7.96875 1.76284,-7.96875 -2.26831,0 -3.70895,1.23577 -9.77101,8.38147 -6.74943,7.95593 -5.40912,11.71833 1.77331,4.9779 z m 71.06294,-1.54395 c 4.97729,-2.38063 10.9946,-6.20282 14.24322,-9.04727 26.29461,-23.02333 33.71313,-31.83065 26.81136,-31.83065 -2.11821,0 -3.1511,-0.73083 -4.66908,-3.3036 -3.24292,-5.49634 -6.27753,-5.03124 -10.36134,1.58802 -2.09373,3.39364 -27.7001,26.09058 -29.43503,26.09058 -0.45673,0 -0.57084,1.03427 -0.25357,2.29837 0.70619,2.8137 -1.89725,8.64107 -4.12022,9.22239 -1.70646,0.44625 -3.12124,5.34261 -2.22133,7.68773 0.713,1.85805 0.14157,2.01256 10.00599,-2.70557 z M 385.3125,406.875 c 0,-1.54688 0.31641,-2.81579 0.70312,-2.81981 2.30582,-0.024 5.07226,-13.84032 3.50558,-17.50778 -0.40028,-0.93701 -0.62897,-2.92551 -0.5082,-4.41889 0.12077,-1.49339 -0.20215,-3.60276 -0.7176,-4.6875 -0.51545,-1.08475 -1.40843,-5.34727 -1.98442,-9.47227 -0.57598,-4.125 -1.48555,-10.03125 -2.02126,-13.125 -0.53571,-3.09375 -0.80874,-6.78516 -0.60674,-8.20312 0.20201,-1.41797 0.0185,-2.57813 -0.40785,-2.57813 -0.42632,0 -0.83939,0.52734 -0.91792,1.17188 -0.0786,0.64453 -0.19516,1.59375 -0.25916,2.10937 -0.064,0.51563 -0.52708,1.57031 -1.02908,2.34375 -0.50199,0.77344 -1.17477,12.79688 -1.49506,26.71875 -0.32029,13.92188 -0.89681,26.47266 -1.28117,27.89063 -0.53739,1.98255 -0.37189,2.57812 0.71641,2.57812 0.77839,0 1.65807,0.63281 1.95488,1.40625 1.05316,2.74449 4.34847,1.67883 4.34847,-1.40625 z m 45.22199,-2.80069 c 4.71421,-1.76381 6.31282,-1.89762 23.91863,-2.00203 2.00754,-0.0119 3.04688,-0.47503 3.04688,-1.35768 0,-0.73678 0.82891,-1.3396 1.84202,-1.3396 1.01311,0 2.28516,-0.82804 2.8268,-1.84009 0.62884,-1.17501 1.53689,-1.62823 2.5123,-1.25392 0.84014,0.32239 1.99385,-0.0118 2.56383,-0.74276 1.10973,-1.42308 7.13005,-1.85769 7.13005,-0.51472 0,0.44261 1.03237,0.54565 2.29414,0.22897 1.57473,-0.39525 2.5567,-0.10662 3.13145,0.9204 0.53101,0.94887 2.26197,1.551 4.73181,1.64603 2.14197,0.0824 3.89688,0.46625 3.89979,0.85297 0.0181,2.39435 2.72709,0.0391 3.77413,-3.28125 0.69103,-2.19141 1.60634,-4.45435 2.03402,-5.02875 1.99413,-2.67825 4.35263,-12.95444 4.9243,-21.45563 0.34673,-5.15625 0.98526,-12.96094 1.41895,-17.34375 2.10298,-21.25225 -0.93937,-46.03426 -6.17008,-50.2596 -0.70868,-0.57248 -1.28851,-2.13787 -1.28851,-3.47867 0,-1.34079 -0.569,-2.96932 -1.26443,-3.61896 -0.69543,-0.64964 -1.07939,-1.88877 -0.85322,-2.75362 1.30242,-4.98046 -3.81752,-7.11575 -5.91596,-2.46728 -0.75648,1.67579 -2.9498,5.48937 -4.87403,8.47464 -1.92424,2.98526 -5.56636,8.68057 -8.09361,12.65625 -2.52724,3.97566 -6.37219,9.12693 -8.54433,11.44724 -4.26102,4.55168 -11.5002,13.94542 -13.25939,17.20568 -0.59742,1.10719 -2.81136,5.59901 -4.91986,9.98182 -2.10851,4.38281 -5.71291,11.55469 -8.00979,15.9375 -2.30255,4.39364 -5.7043,13.22627 -7.58236,19.6875 -1.87342,6.44531 -4.21382,13.25275 -5.20087,15.12764 -3.52648,6.69847 -2.29521,7.64812 5.92734,4.57167 z m 150.73978,-13.28575 c 3.69753,-1.28897 7.47573,-4.37889 7.47573,-6.11388 0,-0.68045 0.41384,-1.23718 0.91964,-1.23718 0.5058,0 1.19679,-1.16016 1.53552,-2.57813 0.33873,-1.41796 1.02586,-3.09899 1.52696,-3.7356 2.66857,-3.3903 1.86141,-23.32073 -0.98697,-24.37029 -0.8739,-0.322 -1.79984,-0.86859 -2.05765,-1.21464 -0.80834,-1.085 -8.4375,-1.94791 -8.4375,-0.95434 0,0.50554 -0.63599,0.6751 -1.41331,0.37682 -2.22788,-0.85493 -7.96169,0.54914 -7.96169,1.94961 0,0.69491 -0.60953,1.49737 -1.35453,1.78324 -0.74498,0.28588 -1.63568,2.01852 -1.97933,3.85031 -0.34364,1.83179 -0.89825,3.33052 -1.23246,3.33052 -2.05836,0 -4.54566,8.60843 -5.34985,18.51563 -0.47186,5.81287 1.43626,6.79721 4.1004,2.1153 0.87836,-1.54362 1.91343,-2.80924 2.30014,-2.8125 0.38672,-0.003 0.70313,-0.63874 0.70313,-1.41218 0,-0.77344 0.58361,-1.40625 1.29691,-1.40625 0.7133,0 1.51755,-0.84375 1.78723,-1.875 0.78142,-2.98813 3.99818,-2.3163 5.61101,1.17188 2.8467,6.15674 2.82748,6.94381 -0.22264,9.11569 -3.76843,2.68336 -3.73801,6.01439 0.0594,6.51341 0.30977,0.0407 1.96568,-0.41488 3.67979,-1.01242 z M 550.78125,376.875 c 0.34846,-2.0625 0.95843,-3.75 1.35551,-3.75 0.88778,0 3.14109,-15.9081 2.52582,-17.832 -0.24391,-0.76271 -0.69768,-2.54691 -1.00839,-3.96488 -0.85979,-3.92388 -2.80495,-3.14081 -8.15064,3.28125 -7.43694,8.93441 -10.20168,16.64063 -5.97012,16.64063 2.06513,0 7.02907,5.31934 7.02907,7.53232 0,3.76877 3.52936,2.17313 4.21875,-1.90732 z m 62.79992,-9.95824 c 0.78035,-1.86766 1.41883,-4.39891 1.41883,-5.625 0,-1.2261 0.42187,-2.22926 0.9375,-2.22926 0.51562,0 0.9375,-0.63281 0.9375,-1.40625 0,-0.77344 -0.50625,-1.40625 -1.125,-1.40625 -0.875,0 -0.875,-0.25 0,-1.125 1.75195,-1.75195 1.32618,-3.5625 -0.83777,-3.5625 -1.15088,0 -2.15857,0.74875 -2.43613,1.81015 -0.26035,0.99558 -1.06461,2.03703 -1.78723,2.31433 -0.72263,0.27729 -1.31387,1.33627 -1.31387,2.35327 0,1.017 -0.42188,2.10983 -0.9375,2.4285 -0.51563,0.31867 -0.9375,2.03107 -0.9375,3.80533 0,1.77426 0.42187,3.22592 0.9375,3.22592 0.51562,0 0.9375,0.63281 0.9375,1.40625 0,2.70193 2.79916,1.37795 4.20617,-1.98949 z M 203.67187,348.7628 c 1.16568,-0.009 1.64063,-0.76668 1.64063,-2.61695 0,-2.69446 -2.75054,-5.83335 -5.11163,-5.83335 -0.73712,0 -1.60094,-0.42188 -1.91962,-0.9375 -1.38964,-2.24848 -4.01574,-0.90729 -4.62952,2.36437 -0.62033,3.3067 0.81742,6.07313 3.1563,6.07313 0.55246,0 1.00447,0.47107 1.00447,1.04684 0,0.62811 0.84375,0.82073 2.10937,0.48156 1.16016,-0.31092 2.84766,-0.57106 3.75,-0.5781 z m 330.45196,-7.04655 c 5.82105,-4.98261 10.42345,-16.55637 10.53074,-26.48188 0.0442,-4.09418 -2.07101,-3.9608 -3.71707,0.23438 -0.7081,1.80469 -1.63059,3.28125 -2.04998,3.28125 -0.41939,0 -0.76252,0.84375 -0.76252,1.875 0,1.03125 -0.354,1.875 -0.78667,1.875 -0.43267,0 -1.59283,1.68266 -2.57813,3.73925 -0.98529,2.05658 -2.31879,3.74408 -2.96333,3.75 -0.64453,0.006 -1.17447,0.74903 -1.17764,1.65137 -0.003,0.90235 -0.636,2.84901 -1.40625,4.32592 -3.95206,7.57772 -1.11094,10.90414 4.91085,5.74971 z M 188.07814,334.6875 c 0.82524,-2.0625 1.77105,-3.74354 2.10178,-3.73565 1.17226,0.028 2.6216,1.41489 3.24707,3.10719 0.48317,1.30727 1.2474,1.58194 3.21286,1.1547 1.4184,-0.30832 4.88096,-0.60994 7.69458,-0.67026 4.87865,-0.1046 7.54057,-1.35392 7.54057,-3.53901 0,-0.55246 0.42187,-1.00447 0.9375,-1.00447 2.05597,0 0.75409,-3.87091 -2.34375,-6.96875 -1.80469,-1.80468 -3.28125,-3.68174 -3.28125,-4.17123 0,-2.15221 -7.52699,-6.86901 -9.97928,-6.25352 -1.83875,0.46149 -2.7652,0.14049 -3.78125,-1.31012 -0.74019,-1.05676 -1.95468,-1.92138 -2.69888,-1.92138 -0.7442,0 -1.35309,-0.63281 -1.35309,-1.40625 0,-1.961 -10.13347,-2.02616 -10.88411,-0.07 -0.55647,1.45011 -4.95628,2.40875 -11.61589,2.53087 -13.43125,0.24631 -14.13608,3.4148 -4.01826,18.06368 4.41698,6.39503 6.56698,7.9553 10.88008,7.89578 1.9814,-0.0274 4.07463,0.42237 4.65162,0.99935 2.73702,2.73702 8.1135,1.23837 9.6897,-2.70094 z m 373.31695,-5.3262 c 1.24904,-1.25105 1.51844,-3.02426 1.30596,-8.59595 -0.16085,-4.21786 0.12847,-7.2646 0.72484,-7.63318 1.61788,-0.9999 -0.88826,-10.31967 -2.775,-10.31967 -4.49054,0 -8.47877,4.34602 -5.61337,6.11693 0.64161,0.39655 0.75274,3.82988 0.32495,10.0409 -0.5875,8.53018 -0.48367,9.55995 1.07918,10.70274 2.24981,1.6451 3.05001,1.59474 4.95344,-0.31177 z M 44.374893,318.62058 c 7.164256,-1.43879 7.721541,-4.66641 1.093857,-6.33528 -3.907426,-0.98391 -4.219695,-1.28615 -4.231552,-4.09568 -0.03026,-7.17094 -2.689523,-9.12712 -12.40759,-9.12712 -4.489796,0 -5.52478,0.34167 -7.099614,2.34375 -1.013977,1.28906 -2.129418,2.34375 -2.478759,2.34375 -0.999401,0 -3.313735,2.57226 -3.313735,3.68303 0,0.55246 -0.568262,1.00447 -1.262803,1.00447 -0.694542,0 -2.235655,0.84375 -3.424697,1.875 -1.189042,1.03125 -2.5192172,1.875 -2.9559466,1.875 C 7.857324,312.1875 7.5,313.01426 7.5,314.02476 c 0,1.39535 0.6201024,1.82132 2.578125,1.77097 9.644839,-0.248 22.940553,0.99445 24.842987,2.3215 2.594691,1.80992 2.873839,1.82478 9.453781,0.50335 z m 55.452394,-9.80595 c 12.090403,-2.9362 5.065983,-15.19629 -10.35247,-18.0687 -8.084625,-1.50613 -8.173503,-1.48502 -12.710837,3.02045 -2.259251,2.24339 -5.056949,4.57855 -6.217105,5.18924 -4.608102,2.42565 1.8546,7.69823 11.172521,9.11507 2.23402,0.3397 4.694666,0.97652 5.468104,1.41518 1.468017,0.83257 7.841137,0.49414 12.639787,-0.67124 z m 56.320073,-5.17592 c 2.96946,-0.74772 4.16514,-1.52631 4.16514,-2.71221 0,-0.91487 0.57852,-1.88539 1.28561,-2.15673 2.04951,-0.78647 2.86271,-5.50358 1.11718,-6.48043 -0.80591,-0.451 -1.46529,-1.41559 -1.46529,-2.14354 0,-2.10908 -7.20329,-3.70144 -8.93054,-1.97419 -1.34514,1.34515 -2.13474,16.51589 -0.8596,16.51589 0.28729,0 2.39667,-0.47196 4.6875,-1.04879 z m 128.61826,-10.17596 c 2.19413,-0.99596 3.98438,-2.46103 3.98438,-3.26067 0,-0.79864 0.36667,-1.45208 0.81484,-1.45208 2.37508,0 1.82912,-6.63131 -0.78127,-9.48932 -4.01023,-4.39064 -6.22098,-1.99187 -8.02944,8.71237 -0.33355,1.97419 -0.99123,3.58945 -1.46154,3.58945 -0.47029,0 -0.85509,0.84375 -0.85509,1.875 0,2.32544 1.24972,2.33043 6.32812,0.0252 z m 130.62463,-4.29205 c 1.96601,-1.21506 0.78522,-3.2332 -1.89172,-3.2332 -4.00186,0 -7.56103,1.59363 -7.56103,3.38547 0,1.52599 6.91757,1.41456 9.45275,-0.15227 z m 92.73475,-7.45195 c 0,-0.77344 0.42188,-1.40625 0.9375,-1.40625 0.51562,0 0.9375,-0.63281 0.9375,-1.40625 0,-0.77344 0.42188,-1.40625 0.9375,-1.40625 0.51562,0 0.9375,-1.10742 0.9375,-2.46094 0,-2.26783 -0.23507,-2.41392 -2.9958,-1.86178 -6.29757,1.25952 -10.1292,2.55373 -10.1292,3.42135 0,1.18796 3.49031,4.65137 4.6875,4.65137 0.51562,0 0.9375,0.42187 0.9375,0.9375 0,0.51562 0.84375,0.9375 1.875,0.9375 1.04167,0 1.875,-0.625 1.875,-1.40625 z m -92.04756,-4.42119 c 0.62697,-0.62697 2.50431,-1.15431 4.17188,-1.17188 3.50357,-0.0369 5.22829,-3.46471 5.32277,-10.57881 0.0384,-2.89315 0.43804,-3.98437 1.45916,-3.98437 1.57773,0 1.93073,-3.3152 0.45042,-4.23008 -2.79604,-1.72804 -11.52212,3.24903 -15.32993,8.74371 -4.1456,5.9821 -0.69586,15.84299 3.9257,11.22143 z m -253.81627,-0.77449 c 1.517,-0.81187 1.79671,-1.88104 1.65553,-6.32813 -0.22119,-6.96731 1.73644,-15.90561 4.02055,-18.35732 2.08074,-2.23341 1.95432,-4.65112 -0.26555,-5.07863 -1.57754,-0.30381 -8.8924,9.72392 -11.14055,15.27226 -0.62678,1.54687 -1.55818,3.86719 -2.06976,5.15625 -0.51158,1.28906 -1.3028,3.0763 -1.75827,3.97165 -2.79041,5.48535 3.12659,8.80593 9.55805,5.36392 z M 100.125,272.625 c 2.52835,-2.52835 0.27606,-11.04591 -3.281897,-12.41122 -4.279511,-1.64221 -13.405603,-1.77366 -13.405603,-0.19309 0,0.84799 0.421875,1.54181 0.9375,1.54181 0.515625,0 0.9375,0.65046 0.9375,1.44545 0,0.795 0.84375,2.35111 1.875,3.45802 1.03125,1.10693 1.875,2.56585 1.875,3.24206 0,0.6762 0.84375,1.22947 1.875,1.22947 1.03125,0 1.875,0.39094 1.875,0.86876 0,1.77672 5.714672,2.41657 7.3125,0.81874 z m 89.8299,-6.95933 c 9.09637,-4.31651 9.65463,-16.01932 1.20164,-25.18973 -4.57827,-4.96684 -5.69501,-5.1442 -9.35365,-1.48555 -4.38073,4.38072 -2.98646,6.20835 3.89661,5.1077 3.49981,-0.55964 5.04741,0.56836 2.738,1.99566 -0.51563,0.31868 -0.9375,1.39826 -0.9375,2.39908 0,1.00082 -0.63281,1.81967 -1.40625,1.81967 -0.77344,0 -1.40625,0.63281 -1.40625,1.40625 0,0.77344 -0.39366,1.40625 -0.8748,1.40625 -0.48113,0 -0.83644,1.3489 -0.78956,2.99756 0.0469,1.64866 -0.40322,3.16038 -1.00021,3.35938 -0.59698,0.199 -1.08543,0.91433 -1.08543,1.58963 0,0.67531 -0.63281,1.47066 -1.40625,1.76746 -2.13791,0.82039 -1.67874,3.22808 0.70312,3.68685 4.29554,0.82735 6.59264,0.62407 9.72053,-0.86021 z m 328.87467,-9.35972 c 0.81562,-0.31298 1.48293,-1.15673 1.48293,-1.875 0,-0.71827 0.63281,-1.30595 1.40625,-1.30595 0.77344,0 1.40625,0.42187 1.40625,0.9375 0,0.51562 0.89295,0.9375 1.98434,0.9375 1.52278,0 1.87029,-0.43612 1.49402,-1.875 -0.36369,-1.39077 -0.0288,-1.875 1.29691,-1.875 0.98298,0 1.78723,0.63281 1.78723,1.40625 0,0.875 0.88541,1.40625 2.34375,1.40625 1.28906,0 2.34375,-0.42188 2.34375,-0.9375 0,-1.42187 1.55483,-1.12374 3.31401,0.63543 1.17226,1.17227 1.96543,1.32577 3.11383,0.60264 2.88067,-1.81392 2.26739,-3.67656 -1.59116,-4.83261 -4.69397,-1.40635 -6.46448,-3.35034 -4.83716,-5.31114 2.73907,-3.30036 -11.15469,1.19245 -14.55141,4.70549 -1.04261,1.07831 -2.62464,2.24029 -3.51563,2.5822 -2.33173,0.89477 -2.05291,5.36799 0.33459,5.36799 0.38752,0 1.3719,-0.25607 2.1875,-0.56905 z m -406.1604,-9.04033 c 0.24904,-1.75351 0.97175,-2.158 4.28396,-2.39765 3.97685,-0.28774 3.98437,-0.29537 3.98437,-4.04601 0,-7.25561 -3.2417,-9.26094 -8.90625,-5.50946 -5.13597,3.40142 -6.00839,0.99637 -1.33414,-3.67789 4.11396,-4.11394 11.82736,-2.85006 14.18495,2.32427 0.53523,1.17469 2.11456,2.33107 3.58545,2.62524 1.44588,0.28919 4.09022,1.80886 5.87631,3.37708 3.61822,3.17684 7.01337,3.70481 7.78529,1.21067 0.27927,-0.90234 0.939,-2.43747 1.46605,-3.4114 0.5946,-1.09873 0.71137,-4.89056 0.30767,-9.99117 l -0.65062,-8.22039 -2.95423,-0.49169 c -1.62483,-0.27043 -6.66266,-0.53755 -11.19519,-0.59361 l -8.24097,-0.10192 -7.3909,5.20851 c -9.32217,6.56951 -19.015339,19.32289 -16.555723,21.78249 3.374273,3.37429 15.340073,4.82724 15.753973,1.91293 z m 61.3668,-9.60937 c 0.2968,-0.77344 1.50345,-1.40625 2.68145,-1.40625 2.21815,0 4.21034,-4.24757 2.63136,-5.61035 -5.05146,-4.35977 -7.98928,-3.23414 -8.52845,3.26769 -0.42731,5.15271 1.71745,7.65315 3.21564,3.74891 z m 28.43105,-65.09462 c 1.70915,-3.19358 1.23479,-9.43663 -0.71702,-9.43663 -2.68267,0 -3.9375,1.95197 -3.9375,6.125 0,5.37238 2.5722,7.20247 4.65452,3.31163 z"
     id="path4146"
     inkscape:connector-curvature="0" />
</svg>
