<?xml version="1.0" encoding="iso-8859-1"?>
<!-- Uploaded to: SVG Repo, www.svgrepo.com, Generator: SVG Repo Mixer Tools -->
<!DOCTYPE svg PUBLIC "-//W3C//DTD SVG 1.1//EN" "http://www.w3.org/Graphics/SVG/1.1/DTD/svg11.dtd">
<svg fill="#ffffff" height="800px" width="800px" version="1.1" id="Capa_1" xmlns="http://www.w3.org/2000/svg" xmlns:xlink="http://www.w3.org/1999/xlink"
	 viewBox="0 0 297 297" xml:space="preserve">
<path d="M262.464,50.045c-3.257,0-6.594,0.42-9.908,1.252l-6.12,1.527c-7.452,1.865-17.985,2.93-28.911,2.93
	c-10.928,0-21.466-1.064-28.92-2.93l-6.119-1.527c-9.17-2.295-21.244-3.559-33.988-3.559c-12.744,0-24.816,1.264-33.985,3.559
	l-6.118,1.527c-7.452,1.865-17.988,2.93-28.914,2.93c-10.928,0-21.463-1.064-28.916-2.93l-6.119-1.527
	c-3.314-0.832-6.65-1.252-9.907-1.252C14.524,50.045,0,65.17,0,86v124.998c0,10.004,3.478,19.129,9.794,25.703
	c6.354,6.613,15.142,10.254,24.744,10.254c3.257,0,6.593-0.42,9.907-1.25l6.117-1.529c7.454-1.865,17.989-2.932,28.917-2.932
	c10.926,0,21.462,1.066,28.914,2.932l6.118,1.529c9.17,2.293,21.242,3.557,33.985,3.557c12.745,0,24.818-1.264,33.988-3.557
	l6.119-1.529c4.806-1.202,10.893-2.072,17.539-2.539c0.558-0.039,1.046-0.393,1.258-0.911c3.489-8.548,11.771-14.562,21.432-14.562
	c11.058,0,20.307,7.881,22.63,18.428c0.12,0.543,0.537,0.973,1.076,1.109l0.016,0.004c3.314,0.83,6.651,1.25,9.908,1.25
	c20.013,0,34.536-15.127,34.536-35.957V86C297,65.17,282.477,50.045,262.464,50.045z M59.607,204.197
	c-9.527,0-17.254-7.729-17.254-17.258s7.727-17.26,17.254-17.26c9.527,0,17.255,7.73,17.255,17.26S69.135,204.197,59.607,204.197z
	 M102.485,139.869c-12.812,0-23.199-10.572-23.199-23.613c0-13.041,10.388-23.613,23.199-23.613
	c12.813,0,23.197,10.572,23.197,23.613C125.683,129.297,115.299,139.869,102.485,139.869z M171.699,191.648
	c-12.81,0-23.2-10.574-23.2-23.617c0-13.043,10.39-23.611,23.2-23.611c12.81,0,23.199,10.568,23.199,23.611
	C194.898,181.074,184.509,191.648,171.699,191.648z M234.774,139.869c-9.529,0-17.254-7.725-17.254-17.256
	c0-9.533,7.725-17.264,17.254-17.264c9.53,0,17.256,7.73,17.256,17.264C252.03,132.145,244.305,139.869,234.774,139.869z"/>
</svg>
